<mxfile host="Electron" modified="2024-09-27T17:50:14.162Z" agent="Mozilla/5.0 (Windows NT 10.0; Win64; x64) AppleWebKit/537.36 (KHTML, like Gecko) draw.io/24.2.5 Chrome/120.0.6099.109 Electron/28.1.0 Safari/537.36" etag="G50Ho7_02WH9hjE4ftwC" version="24.2.5" type="device">
  <diagram name="Страница — 1" id="CaGl-Ic7NaH1gx2oDm2B">
    <mxGraphModel dx="1995" dy="703" grid="0" gridSize="10" guides="1" tooltips="1" connect="1" arrows="1" fold="1" page="0" pageScale="1" pageWidth="827" pageHeight="1169" math="0" shadow="0">
      <root>
        <mxCell id="0" />
        <mxCell id="1" parent="0" />
        <mxCell id="l-SgXU7na3cR4uzJKPwT-1" value="&lt;img height=&quot;16&quot; width=&quot;16&quot; src=&quot;data:image/png;base64,iVBORw0KGgoAAAANSUhEUgAAABAAAAAQCAYAAAAf8/9hAAAABHNCSVQICAgIfAhkiAAAAAlwSFlzAAAAWQAAAFkBqp2phgAAABl0RVh0U29mdHdhcmUAd3d3Lmlua3NjYXBlLm9yZ5vuPBoAAAITSURBVDiNjZA/aBNRAMa/e/lrmuRymGrT2BZJL00tUu0fxKRFG9DBQcRScBHEQRFqRRDazcHaqRhwKuqgUicHURyiCHbQzcEhUqpVaxtME71LLsZLr5fLc+mV5BJJP3jLx+/73vceAMyAISoA2ugwxCQAOIYKMWCIOjy3arY4OTRS8vW94vL85IuytnlO9whoeUdhALCy3l3EZndVemYASNw9XwVSTUUx8x0OX7DKV8QkyqrirykghNyqAvO5Zjm1POr0h+aqilWFp2XNYVxG66ztAZCo94zOgZGL/q7exeBgdGp7AYAxA9cGwF3hlwC85PtHrqS+JmKnr86Q+P3p24G+YY7ZWvDUUOAGcBTAK72gydeZVoTkxLUHb0lbqA/plSXcuRAu7egJXCgybnU3a2xXeCMYPiXPvv9DI2cv0ZZAz5eGBVwoMm5x7dYGp9/R44+y1Nt7sujZ267u6eDXOY5j9T+oV/LLc2BoorC2GDs0+Zy49h8GKIXN22GXvn2Q6IbULUmS9L9w1c3RJ39pdL5A9524TB0+fh0cx+ocA0AB0ApAqMizJrtT7L/5hjjbDwKUYunhdWQTCyl5UwhBFPM6aAYwC+AnAOuWl3IHBqZM9qbt8OfHN5D9tJA2hvUFNfJ0Dz2zca1nWP4IhI9xFDMraVkRgsawvqBGWjHfksv8yCu/VxOw2OJyKReDKBbqsf8Aa8fUs+1j2QQAAAAASUVORK5CYII=&quot;&gt;&lt;font face=&quot;Comic Sans MS&quot;&gt;Employee&lt;/font&gt;&lt;font face=&quot;Comic Sans MS&quot;&gt;(&lt;span style=&quot;white-space-collapse: preserve;&quot; data-src-align=&quot;0:8&quot; class=&quot;EzKURWReUAB5oZgtQNkl&quot;&gt;Работник&lt;/span&gt;)&lt;/font&gt;" style="swimlane;fontStyle=1;align=center;verticalAlign=top;childLayout=stackLayout;horizontal=1;startSize=26;horizontalStack=0;resizeParent=1;resizeParentMax=0;resizeLast=0;collapsible=1;marginBottom=0;whiteSpace=wrap;html=1;fillColor=#ffe6cc;strokeColor=#d79b00;sketch=1;curveFitting=1;jiggle=2;shadow=1;" parent="1" vertex="1">
          <mxGeometry x="162" y="1109" width="193" height="176" as="geometry">
            <mxRectangle x="74" y="291" width="95" height="26" as="alternateBounds" />
          </mxGeometry>
        </mxCell>
        <mxCell id="l-SgXU7na3cR4uzJKPwT-15" value="&lt;img height=&quot;16&quot; width=&quot;16&quot; src=&quot;data:image/png;base64,iVBORw0KGgoAAAANSUhEUgAAABAAAAAQCAYAAAAf8/9hAAAABHNCSVQICAgIfAhkiAAAAAlwSFlzAAAOxAAADsQBlSsOGwAAABl0RVh0U29mdHdhcmUAd3d3Lmlua3NjYXBlLm9yZ5vuPBoAAAGVSURBVDiN7ZJPS1RhFMZ/57xdh6KICkUkmgpatGhtu/4QuJmy5s6dnTiUi1rXB5ivECqYm3BaJPd2s11WQlBkW8k2EUl/NolltHHMt/seF6UYCH2A+m3O5nkeeB4O/EcAkjR1oS1vKfRcfjleAIhb2TuMo2IsmpOr+UDtAWZSa927aXAF+BLUhhSgWHEngSOo9W9GG/t85LsDGhNsHDO5dCc7Y3A24A4hck2DjiuAiFWAN7/vHzgtPgG7kixTF6RswtzUYPXriYXX01iY11+yUDGz6wa9ya1074Y58tHjYDIPvMjq9WJrcLPZDHmjfkEv3r57GKRnudz5COxlKGnfhiio3TDT80BXtZU2thtRnboKIAc+Lj0EOYawWaNwP1/db8TPBMbE5PRWY5KmrjqRPZd4Ip1GmMXcLGb7TWzU7bTu0JYlH/nje0JorxalSbCZIMxpkOGODn/qx9qOXhEdUZByyfnhfDCeyRu1VOB94d1BhG+Rjz6vFqVFE5ZXvu8enRpIniLyZM1HH0R0RMyG/vIm/wTrdrioEt82JnkAAAAASUVORK5CYII=&quot;&gt;&amp;nbsp;&lt;font face=&quot;Comic Sans MS&quot;&gt;FirstName&lt;/font&gt;" style="text;strokeColor=none;fillColor=none;align=left;verticalAlign=top;spacingLeft=4;spacingRight=4;overflow=hidden;rotatable=0;points=[[0,0.5],[1,0.5]];portConstraint=eastwest;whiteSpace=wrap;html=1;" parent="l-SgXU7na3cR4uzJKPwT-1" vertex="1">
          <mxGeometry y="26" width="193" height="30" as="geometry" />
        </mxCell>
        <mxCell id="l-SgXU7na3cR4uzJKPwT-16" value="&lt;img height=&quot;16&quot; width=&quot;16&quot; src=&quot;data:image/png;base64,iVBORw0KGgoAAAANSUhEUgAAABAAAAAQCAYAAAAf8/9hAAAABHNCSVQICAgIfAhkiAAAAAlwSFlzAAAOxAAADsQBlSsOGwAAABl0RVh0U29mdHdhcmUAd3d3Lmlua3NjYXBlLm9yZ5vuPBoAAAGVSURBVDiN7ZJPS1RhFMZ/57xdh6KICkUkmgpatGhtu/4QuJmy5s6dnTiUi1rXB5ivECqYm3BaJPd2s11WQlBkW8k2EUl/NolltHHMt/seF6UYCH2A+m3O5nkeeB4O/EcAkjR1oS1vKfRcfjleAIhb2TuMo2IsmpOr+UDtAWZSa927aXAF+BLUhhSgWHEngSOo9W9GG/t85LsDGhNsHDO5dCc7Y3A24A4hck2DjiuAiFWAN7/vHzgtPgG7kixTF6RswtzUYPXriYXX01iY11+yUDGz6wa9ya1074Y58tHjYDIPvMjq9WJrcLPZDHmjfkEv3r57GKRnudz5COxlKGnfhiio3TDT80BXtZU2thtRnboKIAc+Lj0EOYawWaNwP1/db8TPBMbE5PRWY5KmrjqRPZd4Ip1GmMXcLGb7TWzU7bTu0JYlH/nje0JorxalSbCZIMxpkOGODn/qx9qOXhEdUZByyfnhfDCeyRu1VOB94d1BhG+Rjz6vFqVFE5ZXvu8enRpIniLyZM1HH0R0RMyG/vIm/wTrdrioEt82JnkAAAAASUVORK5CYII=&quot;&gt;&amp;nbsp;&lt;font face=&quot;Comic Sans MS&quot;&gt;LastName&lt;/font&gt;" style="text;strokeColor=none;fillColor=none;align=left;verticalAlign=top;spacingLeft=4;spacingRight=4;overflow=hidden;rotatable=0;points=[[0,0.5],[1,0.5]];portConstraint=eastwest;whiteSpace=wrap;html=1;" parent="l-SgXU7na3cR4uzJKPwT-1" vertex="1">
          <mxGeometry y="56" width="193" height="30" as="geometry" />
        </mxCell>
        <mxCell id="l-SgXU7na3cR4uzJKPwT-17" value="&lt;img height=&quot;16&quot; width=&quot;16&quot; src=&quot;data:image/png;base64,iVBORw0KGgoAAAANSUhEUgAAABAAAAAQCAYAAAAf8/9hAAAABHNCSVQICAgIfAhkiAAAAAlwSFlzAAAOxAAADsQBlSsOGwAAABl0RVh0U29mdHdhcmUAd3d3Lmlua3NjYXBlLm9yZ5vuPBoAAAGVSURBVDiN7ZJPS1RhFMZ/57xdh6KICkUkmgpatGhtu/4QuJmy5s6dnTiUi1rXB5ivECqYm3BaJPd2s11WQlBkW8k2EUl/NolltHHMt/seF6UYCH2A+m3O5nkeeB4O/EcAkjR1oS1vKfRcfjleAIhb2TuMo2IsmpOr+UDtAWZSa927aXAF+BLUhhSgWHEngSOo9W9GG/t85LsDGhNsHDO5dCc7Y3A24A4hck2DjiuAiFWAN7/vHzgtPgG7kixTF6RswtzUYPXriYXX01iY11+yUDGz6wa9ya1074Y58tHjYDIPvMjq9WJrcLPZDHmjfkEv3r57GKRnudz5COxlKGnfhiio3TDT80BXtZU2thtRnboKIAc+Lj0EOYawWaNwP1/db8TPBMbE5PRWY5KmrjqRPZd4Ip1GmMXcLGb7TWzU7bTu0JYlH/nje0JorxalSbCZIMxpkOGODn/qx9qOXhEdUZByyfnhfDCeyRu1VOB94d1BhG+Rjz6vFqVFE5ZXvu8enRpIniLyZM1HH0R0RMyG/vIm/wTrdrioEt82JnkAAAAASUVORK5CYII=&quot;&gt;&amp;nbsp;&lt;font face=&quot;Comic Sans MS&quot;&gt;Email&lt;/font&gt;" style="text;strokeColor=none;fillColor=none;align=left;verticalAlign=top;spacingLeft=4;spacingRight=4;overflow=hidden;rotatable=0;points=[[0,0.5],[1,0.5]];portConstraint=eastwest;whiteSpace=wrap;html=1;" parent="l-SgXU7na3cR4uzJKPwT-1" vertex="1">
          <mxGeometry y="86" width="193" height="30" as="geometry" />
        </mxCell>
        <mxCell id="l-SgXU7na3cR4uzJKPwT-2" value="&lt;img height=&quot;16&quot; width=&quot;16&quot; src=&quot;data:image/png;base64,iVBORw0KGgoAAAANSUhEUgAAABAAAAAQCAYAAAAf8/9hAAAABHNCSVQICAgIfAhkiAAAAAlwSFlzAAAOxAAADsQBlSsOGwAAABl0RVh0U29mdHdhcmUAd3d3Lmlua3NjYXBlLm9yZ5vuPBoAAAFVSURBVDiNtZK9TgJREEbPXBbF2FpZ+gQWVtbGWFgYYE1khWjiCxhrE21tLP1phIaCNRiJhb6FFlY+ALGRmIAFsHdsFrxkMYEYv2pmzp2ZLzcDf5QA+De15Sglh6LMAagSYfSpXtouA+TL4b6FdRFScd+XNanzu2L2xQOwRo5E2R1OFUBlCygDqHAhMOtuNtYaoGTifATGyjjxGK4ZAJME02kwQMcw+0scS6wzQJ6AjkMjgfthptoAIod3VOzj9H7/QwKQL4eBClfAfFyPVAnre/6O+zhXCa976d5xo1B4H9QMgIVNpxkgJUJ+zMLVdHdmwS14AM6FJRhAthJeCqwAS6C1bCVsZ7zuRjUIWt6YxqSMOTVRtGiN1EQ4MUZfq0HQ+tmi0kESp9AeBPVirgk0c5XwU60835b8txGb1vTPjPVAdPAPfRV9SBjp6Vp44H9M5HpSfQPboW2GgFUougAAAABJRU5ErkJggg==&quot;&gt;&amp;nbsp;&lt;font face=&quot;Comic Sans MS&quot;&gt;Role&lt;/font&gt;" style="text;strokeColor=none;fillColor=none;align=left;verticalAlign=top;spacingLeft=4;spacingRight=4;overflow=hidden;rotatable=0;points=[[0,0.5],[1,0.5]];portConstraint=eastwest;whiteSpace=wrap;html=1;" parent="l-SgXU7na3cR4uzJKPwT-1" vertex="1">
          <mxGeometry y="116" width="193" height="30" as="geometry" />
        </mxCell>
        <mxCell id="l-SgXU7na3cR4uzJKPwT-5" value="&lt;img height=&quot;16&quot; width=&quot;16&quot; src=&quot;data:image/png;base64,iVBORw0KGgoAAAANSUhEUgAAABAAAAAQCAYAAAAf8/9hAAAABHNCSVQICAgIfAhkiAAAAAlwSFlzAAAOxAAADsQBlSsOGwAAABl0RVh0U29mdHdhcmUAd3d3Lmlua3NjYXBlLm9yZ5vuPBoAAAFgSURBVDiN7ZAxS1thGIWf97s3RUnSf9C6FlFxKh3cVOjszQ26JFpa/A8uavduHQuXBFzuTYJ1E0cFxYKgqOCiBV1c1TiY5jsuScEhv6A908sZznnPA/9l/WMxSYbueD3ZWooO5jaaI67r3wNIdtGslk4Wk2ToPix+NCnnu+53ayn6BeAA4jQdfrDCljm/C+C6flkilUhBR3GSjrddfgKvVCI15w9LtewzQAigR1uTMdP/qFGJV4AVgKiWSYG9a1TiDHjV8za9mAZ+hAAd/+d7GAS3YN8A4nr6titbMygACLsDKNWzOYl5Ex8wq/+d8PPTwrWZXfd5eNmqwWwP0vr45enOIIjhAL8I7DercRmg0TMblbgFtKJatinpzcsA8QR0eq3ngtWolgnoODQF4LE9IAfgjC8vAgr+Ybvt8lMAY1dnX49HRg+CwIqIp7xvnwDch8WySTmTbrJqeX/QrH9Nzyj3i5WedCoFAAAAAElFTkSuQmCC&quot;&gt;&amp;nbsp;&lt;font face=&quot;Comic Sans MS&quot;&gt;AppliedPromocodesCount&lt;/font&gt;" style="text;strokeColor=none;fillColor=none;align=left;verticalAlign=top;spacingLeft=4;spacingRight=4;overflow=hidden;rotatable=0;points=[[0,0.5],[1,0.5]];portConstraint=eastwest;whiteSpace=wrap;html=1;" parent="l-SgXU7na3cR4uzJKPwT-1" vertex="1">
          <mxGeometry y="146" width="193" height="30" as="geometry" />
        </mxCell>
        <mxCell id="l-SgXU7na3cR4uzJKPwT-8" value="&lt;img height=&quot;16&quot; width=&quot;16&quot; src=&quot;data:image/png;base64,iVBORw0KGgoAAAANSUhEUgAAABAAAAAQCAYAAAAf8/9hAAAABHNCSVQICAgIfAhkiAAAAAlwSFlzAAAAWQAAAFkBqp2phgAAABl0RVh0U29mdHdhcmUAd3d3Lmlua3NjYXBlLm9yZ5vuPBoAAAITSURBVDiNjZA/aBNRAMa/e/lrmuRymGrT2BZJL00tUu0fxKRFG9DBQcRScBHEQRFqRRDazcHaqRhwKuqgUicHURyiCHbQzcEhUqpVaxtME71LLsZLr5fLc+mV5BJJP3jLx+/73vceAMyAISoA2ugwxCQAOIYKMWCIOjy3arY4OTRS8vW94vL85IuytnlO9whoeUdhALCy3l3EZndVemYASNw9XwVSTUUx8x0OX7DKV8QkyqrirykghNyqAvO5Zjm1POr0h+aqilWFp2XNYVxG66ztAZCo94zOgZGL/q7exeBgdGp7AYAxA9cGwF3hlwC85PtHrqS+JmKnr86Q+P3p24G+YY7ZWvDUUOAGcBTAK72gydeZVoTkxLUHb0lbqA/plSXcuRAu7egJXCgybnU3a2xXeCMYPiXPvv9DI2cv0ZZAz5eGBVwoMm5x7dYGp9/R44+y1Nt7sujZ267u6eDXOY5j9T+oV/LLc2BoorC2GDs0+Zy49h8GKIXN22GXvn2Q6IbULUmS9L9w1c3RJ39pdL5A9524TB0+fh0cx+ocA0AB0ApAqMizJrtT7L/5hjjbDwKUYunhdWQTCyl5UwhBFPM6aAYwC+AnAOuWl3IHBqZM9qbt8OfHN5D9tJA2hvUFNfJ0Dz2zca1nWP4IhI9xFDMraVkRgsawvqBGWjHfksv8yCu/VxOw2OJyKReDKBbqsf8Aa8fUs+1j2QQAAAAASUVORK5CYII=&quot;&gt;&lt;font face=&quot;Comic Sans MS&quot;&gt;Role(Роль)&lt;/font&gt;" style="swimlane;fontStyle=1;align=center;verticalAlign=top;childLayout=stackLayout;horizontal=1;startSize=26;horizontalStack=0;resizeParent=1;resizeParentMax=0;resizeLast=0;collapsible=1;marginBottom=0;whiteSpace=wrap;html=1;fillColor=#ffe6cc;strokeColor=#d79b00;sketch=1;curveFitting=1;jiggle=2;shadow=1;" parent="1" vertex="1">
          <mxGeometry x="407" y="1273" width="160" height="86" as="geometry">
            <mxRectangle x="74" y="291" width="95" height="26" as="alternateBounds" />
          </mxGeometry>
        </mxCell>
        <mxCell id="l-SgXU7na3cR4uzJKPwT-9" value="&lt;img height=&quot;16&quot; width=&quot;16&quot; src=&quot;data:image/png;base64,iVBORw0KGgoAAAANSUhEUgAAABAAAAAQCAYAAAAf8/9hAAAABHNCSVQICAgIfAhkiAAAAAlwSFlzAAAOxAAADsQBlSsOGwAAABl0RVh0U29mdHdhcmUAd3d3Lmlua3NjYXBlLm9yZ5vuPBoAAAGVSURBVDiN7ZJPS1RhFMZ/57xdh6KICkUkmgpatGhtu/4QuJmy5s6dnTiUi1rXB5ivECqYm3BaJPd2s11WQlBkW8k2EUl/NolltHHMt/seF6UYCH2A+m3O5nkeeB4O/EcAkjR1oS1vKfRcfjleAIhb2TuMo2IsmpOr+UDtAWZSa927aXAF+BLUhhSgWHEngSOo9W9GG/t85LsDGhNsHDO5dCc7Y3A24A4hck2DjiuAiFWAN7/vHzgtPgG7kixTF6RswtzUYPXriYXX01iY11+yUDGz6wa9ya1074Y58tHjYDIPvMjq9WJrcLPZDHmjfkEv3r57GKRnudz5COxlKGnfhiio3TDT80BXtZU2thtRnboKIAc+Lj0EOYawWaNwP1/db8TPBMbE5PRWY5KmrjqRPZd4Ip1GmMXcLGb7TWzU7bTu0JYlH/nje0JorxalSbCZIMxpkOGODn/qx9qOXhEdUZByyfnhfDCeyRu1VOB94d1BhG+Rjz6vFqVFE5ZXvu8enRpIniLyZM1HH0R0RMyG/vIm/wTrdrioEt82JnkAAAAASUVORK5CYII=&quot;&gt;&amp;nbsp;&lt;font face=&quot;Comic Sans MS&quot;&gt;Name&lt;/font&gt;" style="text;strokeColor=none;fillColor=none;align=left;verticalAlign=top;spacingLeft=4;spacingRight=4;overflow=hidden;rotatable=0;points=[[0,0.5],[1,0.5]];portConstraint=eastwest;whiteSpace=wrap;html=1;" parent="l-SgXU7na3cR4uzJKPwT-8" vertex="1">
          <mxGeometry y="26" width="160" height="30" as="geometry" />
        </mxCell>
        <mxCell id="l-SgXU7na3cR4uzJKPwT-10" value="&lt;img height=&quot;16&quot; width=&quot;16&quot; src=&quot;data:image/png;base64,iVBORw0KGgoAAAANSUhEUgAAABAAAAAQCAYAAAAf8/9hAAAABHNCSVQICAgIfAhkiAAAAAlwSFlzAAAOxAAADsQBlSsOGwAAABl0RVh0U29mdHdhcmUAd3d3Lmlua3NjYXBlLm9yZ5vuPBoAAAGVSURBVDiN7ZJPS1RhFMZ/57xdh6KICkUkmgpatGhtu/4QuJmy5s6dnTiUi1rXB5ivECqYm3BaJPd2s11WQlBkW8k2EUl/NolltHHMt/seF6UYCH2A+m3O5nkeeB4O/EcAkjR1oS1vKfRcfjleAIhb2TuMo2IsmpOr+UDtAWZSa927aXAF+BLUhhSgWHEngSOo9W9GG/t85LsDGhNsHDO5dCc7Y3A24A4hck2DjiuAiFWAN7/vHzgtPgG7kixTF6RswtzUYPXriYXX01iY11+yUDGz6wa9ya1074Y58tHjYDIPvMjq9WJrcLPZDHmjfkEv3r57GKRnudz5COxlKGnfhiio3TDT80BXtZU2thtRnboKIAc+Lj0EOYawWaNwP1/db8TPBMbE5PRWY5KmrjqRPZd4Ip1GmMXcLGb7TWzU7bTu0JYlH/nje0JorxalSbCZIMxpkOGODn/qx9qOXhEdUZByyfnhfDCeyRu1VOB94d1BhG+Rjz6vFqVFE5ZXvu8enRpIniLyZM1HH0R0RMyG/vIm/wTrdrioEt82JnkAAAAASUVORK5CYII=&quot;&gt;&amp;nbsp;&lt;font face=&quot;Comic Sans MS&quot;&gt;Description&lt;/font&gt;" style="text;strokeColor=none;fillColor=none;align=left;verticalAlign=top;spacingLeft=4;spacingRight=4;overflow=hidden;rotatable=0;points=[[0,0.5],[1,0.5]];portConstraint=eastwest;whiteSpace=wrap;html=1;" parent="l-SgXU7na3cR4uzJKPwT-8" vertex="1">
          <mxGeometry y="56" width="160" height="30" as="geometry" />
        </mxCell>
        <mxCell id="l-SgXU7na3cR4uzJKPwT-19" style="edgeStyle=orthogonalEdgeStyle;rounded=0;orthogonalLoop=1;jettySize=auto;html=1;shadow=1;sketch=1;jiggle=2;curveFitting=1;strokeColor=default;strokeWidth=1;align=center;verticalAlign=middle;fontFamily=Helvetica;fontSize=11;fontColor=default;labelBackgroundColor=default;endArrow=classic;flowAnimation=0;curved=1;entryX=0;entryY=0;entryDx=0;entryDy=0;" parent="1" source="l-SgXU7na3cR4uzJKPwT-2" target="l-SgXU7na3cR4uzJKPwT-8" edge="1">
          <mxGeometry relative="1" as="geometry" />
        </mxCell>
        <mxCell id="l-SgXU7na3cR4uzJKPwT-21" value="&lt;img height=&quot;16&quot; width=&quot;16&quot; src=&quot;data:image/png;base64,iVBORw0KGgoAAAANSUhEUgAAABAAAAAQCAYAAAAf8/9hAAAABHNCSVQICAgIfAhkiAAAAAlwSFlzAAAAWQAAAFkBqp2phgAAABl0RVh0U29mdHdhcmUAd3d3Lmlua3NjYXBlLm9yZ5vuPBoAAAITSURBVDiNjZA/aBNRAMa/e/lrmuRymGrT2BZJL00tUu0fxKRFG9DBQcRScBHEQRFqRRDazcHaqRhwKuqgUicHURyiCHbQzcEhUqpVaxtME71LLsZLr5fLc+mV5BJJP3jLx+/73vceAMyAISoA2ugwxCQAOIYKMWCIOjy3arY4OTRS8vW94vL85IuytnlO9whoeUdhALCy3l3EZndVemYASNw9XwVSTUUx8x0OX7DKV8QkyqrirykghNyqAvO5Zjm1POr0h+aqilWFp2XNYVxG66ztAZCo94zOgZGL/q7exeBgdGp7AYAxA9cGwF3hlwC85PtHrqS+JmKnr86Q+P3p24G+YY7ZWvDUUOAGcBTAK72gydeZVoTkxLUHb0lbqA/plSXcuRAu7egJXCgybnU3a2xXeCMYPiXPvv9DI2cv0ZZAz5eGBVwoMm5x7dYGp9/R44+y1Nt7sujZ267u6eDXOY5j9T+oV/LLc2BoorC2GDs0+Zy49h8GKIXN22GXvn2Q6IbULUmS9L9w1c3RJ39pdL5A9524TB0+fh0cx+ocA0AB0ApAqMizJrtT7L/5hjjbDwKUYunhdWQTCyl5UwhBFPM6aAYwC+AnAOuWl3IHBqZM9qbt8OfHN5D9tJA2hvUFNfJ0Dz2zca1nWP4IhI9xFDMraVkRgsawvqBGWjHfksv8yCu/VxOw2OJyKReDKBbqsf8Aa8fUs+1j2QQAAAAASUVORK5CYII=&quot;&gt;&lt;font face=&quot;Comic Sans MS&quot;&gt;Customer(&lt;span style=&quot;white-space-collapse: preserve;&quot;&gt;Покупатель)&lt;/span&gt;&lt;/font&gt;" style="swimlane;fontStyle=1;align=center;verticalAlign=top;childLayout=stackLayout;horizontal=1;startSize=26;horizontalStack=0;resizeParent=1;resizeParentMax=0;resizeLast=0;collapsible=1;marginBottom=0;whiteSpace=wrap;html=1;fillColor=#ffe6cc;strokeColor=#d79b00;sketch=1;curveFitting=1;jiggle=2;shadow=1;" parent="1" vertex="1">
          <mxGeometry x="30" y="672" width="193" height="176" as="geometry">
            <mxRectangle x="74" y="291" width="95" height="26" as="alternateBounds" />
          </mxGeometry>
        </mxCell>
        <mxCell id="l-SgXU7na3cR4uzJKPwT-22" value="&lt;img height=&quot;16&quot; width=&quot;16&quot; src=&quot;data:image/png;base64,iVBORw0KGgoAAAANSUhEUgAAABAAAAAQCAYAAAAf8/9hAAAABHNCSVQICAgIfAhkiAAAAAlwSFlzAAAOxAAADsQBlSsOGwAAABl0RVh0U29mdHdhcmUAd3d3Lmlua3NjYXBlLm9yZ5vuPBoAAAGVSURBVDiN7ZJPS1RhFMZ/57xdh6KICkUkmgpatGhtu/4QuJmy5s6dnTiUi1rXB5ivECqYm3BaJPd2s11WQlBkW8k2EUl/NolltHHMt/seF6UYCH2A+m3O5nkeeB4O/EcAkjR1oS1vKfRcfjleAIhb2TuMo2IsmpOr+UDtAWZSa927aXAF+BLUhhSgWHEngSOo9W9GG/t85LsDGhNsHDO5dCc7Y3A24A4hck2DjiuAiFWAN7/vHzgtPgG7kixTF6RswtzUYPXriYXX01iY11+yUDGz6wa9ya1074Y58tHjYDIPvMjq9WJrcLPZDHmjfkEv3r57GKRnudz5COxlKGnfhiio3TDT80BXtZU2thtRnboKIAc+Lj0EOYawWaNwP1/db8TPBMbE5PRWY5KmrjqRPZd4Ip1GmMXcLGb7TWzU7bTu0JYlH/nje0JorxalSbCZIMxpkOGODn/qx9qOXhEdUZByyfnhfDCeyRu1VOB94d1BhG+Rjz6vFqVFE5ZXvu8enRpIniLyZM1HH0R0RMyG/vIm/wTrdrioEt82JnkAAAAASUVORK5CYII=&quot;&gt;&amp;nbsp;&lt;font face=&quot;Comic Sans MS&quot;&gt;FirstName&lt;/font&gt;" style="text;strokeColor=none;fillColor=none;align=left;verticalAlign=top;spacingLeft=4;spacingRight=4;overflow=hidden;rotatable=0;points=[[0,0.5],[1,0.5]];portConstraint=eastwest;whiteSpace=wrap;html=1;" parent="l-SgXU7na3cR4uzJKPwT-21" vertex="1">
          <mxGeometry y="26" width="193" height="30" as="geometry" />
        </mxCell>
        <mxCell id="l-SgXU7na3cR4uzJKPwT-23" value="&lt;img height=&quot;16&quot; width=&quot;16&quot; src=&quot;data:image/png;base64,iVBORw0KGgoAAAANSUhEUgAAABAAAAAQCAYAAAAf8/9hAAAABHNCSVQICAgIfAhkiAAAAAlwSFlzAAAOxAAADsQBlSsOGwAAABl0RVh0U29mdHdhcmUAd3d3Lmlua3NjYXBlLm9yZ5vuPBoAAAGVSURBVDiN7ZJPS1RhFMZ/57xdh6KICkUkmgpatGhtu/4QuJmy5s6dnTiUi1rXB5ivECqYm3BaJPd2s11WQlBkW8k2EUl/NolltHHMt/seF6UYCH2A+m3O5nkeeB4O/EcAkjR1oS1vKfRcfjleAIhb2TuMo2IsmpOr+UDtAWZSa927aXAF+BLUhhSgWHEngSOo9W9GG/t85LsDGhNsHDO5dCc7Y3A24A4hck2DjiuAiFWAN7/vHzgtPgG7kixTF6RswtzUYPXriYXX01iY11+yUDGz6wa9ya1074Y58tHjYDIPvMjq9WJrcLPZDHmjfkEv3r57GKRnudz5COxlKGnfhiio3TDT80BXtZU2thtRnboKIAc+Lj0EOYawWaNwP1/db8TPBMbE5PRWY5KmrjqRPZd4Ip1GmMXcLGb7TWzU7bTu0JYlH/nje0JorxalSbCZIMxpkOGODn/qx9qOXhEdUZByyfnhfDCeyRu1VOB94d1BhG+Rjz6vFqVFE5ZXvu8enRpIniLyZM1HH0R0RMyG/vIm/wTrdrioEt82JnkAAAAASUVORK5CYII=&quot;&gt;&amp;nbsp;&lt;font face=&quot;Comic Sans MS&quot;&gt;LastName&lt;/font&gt;" style="text;strokeColor=none;fillColor=none;align=left;verticalAlign=top;spacingLeft=4;spacingRight=4;overflow=hidden;rotatable=0;points=[[0,0.5],[1,0.5]];portConstraint=eastwest;whiteSpace=wrap;html=1;" parent="l-SgXU7na3cR4uzJKPwT-21" vertex="1">
          <mxGeometry y="56" width="193" height="30" as="geometry" />
        </mxCell>
        <mxCell id="l-SgXU7na3cR4uzJKPwT-24" value="&lt;img height=&quot;16&quot; width=&quot;16&quot; src=&quot;data:image/png;base64,iVBORw0KGgoAAAANSUhEUgAAABAAAAAQCAYAAAAf8/9hAAAABHNCSVQICAgIfAhkiAAAAAlwSFlzAAAOxAAADsQBlSsOGwAAABl0RVh0U29mdHdhcmUAd3d3Lmlua3NjYXBlLm9yZ5vuPBoAAAGVSURBVDiN7ZJPS1RhFMZ/57xdh6KICkUkmgpatGhtu/4QuJmy5s6dnTiUi1rXB5ivECqYm3BaJPd2s11WQlBkW8k2EUl/NolltHHMt/seF6UYCH2A+m3O5nkeeB4O/EcAkjR1oS1vKfRcfjleAIhb2TuMo2IsmpOr+UDtAWZSa927aXAF+BLUhhSgWHEngSOo9W9GG/t85LsDGhNsHDO5dCc7Y3A24A4hck2DjiuAiFWAN7/vHzgtPgG7kixTF6RswtzUYPXriYXX01iY11+yUDGz6wa9ya1074Y58tHjYDIPvMjq9WJrcLPZDHmjfkEv3r57GKRnudz5COxlKGnfhiio3TDT80BXtZU2thtRnboKIAc+Lj0EOYawWaNwP1/db8TPBMbE5PRWY5KmrjqRPZd4Ip1GmMXcLGb7TWzU7bTu0JYlH/nje0JorxalSbCZIMxpkOGODn/qx9qOXhEdUZByyfnhfDCeyRu1VOB94d1BhG+Rjz6vFqVFE5ZXvu8enRpIniLyZM1HH0R0RMyG/vIm/wTrdrioEt82JnkAAAAASUVORK5CYII=&quot;&gt;&amp;nbsp;&lt;font face=&quot;Comic Sans MS&quot;&gt;Email&lt;/font&gt;" style="text;strokeColor=none;fillColor=none;align=left;verticalAlign=top;spacingLeft=4;spacingRight=4;overflow=hidden;rotatable=0;points=[[0,0.5],[1,0.5]];portConstraint=eastwest;whiteSpace=wrap;html=1;" parent="l-SgXU7na3cR4uzJKPwT-21" vertex="1">
          <mxGeometry y="86" width="193" height="30" as="geometry" />
        </mxCell>
        <mxCell id="l-SgXU7na3cR4uzJKPwT-25" value="&lt;img height=&quot;16&quot; width=&quot;16&quot; src=&quot;data:image/png;base64,iVBORw0KGgoAAAANSUhEUgAAABAAAAAQCAYAAAAf8/9hAAAABHNCSVQICAgIfAhkiAAAAAlwSFlzAAAOxAAADsQBlSsOGwAAABl0RVh0U29mdHdhcmUAd3d3Lmlua3NjYXBlLm9yZ5vuPBoAAAFVSURBVDiNtZK9TgJREEbPXBbF2FpZ+gQWVtbGWFgYYE1khWjiCxhrE21tLP1phIaCNRiJhb6FFlY+ALGRmIAFsHdsFrxkMYEYv2pmzp2ZLzcDf5QA+De15Sglh6LMAagSYfSpXtouA+TL4b6FdRFScd+XNanzu2L2xQOwRo5E2R1OFUBlCygDqHAhMOtuNtYaoGTifATGyjjxGK4ZAJME02kwQMcw+0scS6wzQJ6AjkMjgfthptoAIod3VOzj9H7/QwKQL4eBClfAfFyPVAnre/6O+zhXCa976d5xo1B4H9QMgIVNpxkgJUJ+zMLVdHdmwS14AM6FJRhAthJeCqwAS6C1bCVsZ7zuRjUIWt6YxqSMOTVRtGiN1EQ4MUZfq0HQ+tmi0kESp9AeBPVirgk0c5XwU60835b8txGb1vTPjPVAdPAPfRV9SBjp6Vp44H9M5HpSfQPboW2GgFUougAAAABJRU5ErkJggg==&quot;&gt;&amp;nbsp;&lt;font face=&quot;Comic Sans MS&quot;&gt;List&amp;lt;Preference&amp;gt;&lt;/font&gt;" style="text;strokeColor=none;fillColor=none;align=left;verticalAlign=top;spacingLeft=4;spacingRight=4;overflow=hidden;rotatable=0;points=[[0,0.5],[1,0.5]];portConstraint=eastwest;whiteSpace=wrap;html=1;" parent="l-SgXU7na3cR4uzJKPwT-21" vertex="1">
          <mxGeometry y="116" width="193" height="30" as="geometry" />
        </mxCell>
        <mxCell id="l-SgXU7na3cR4uzJKPwT-33" value="&lt;img height=&quot;16&quot; width=&quot;16&quot; src=&quot;data:image/png;base64,iVBORw0KGgoAAAANSUhEUgAAABAAAAAQCAYAAAAf8/9hAAAABHNCSVQICAgIfAhkiAAAAAlwSFlzAAAOxAAADsQBlSsOGwAAABl0RVh0U29mdHdhcmUAd3d3Lmlua3NjYXBlLm9yZ5vuPBoAAAFVSURBVDiNtZK9TgJREEbPXBbF2FpZ+gQWVtbGWFgYYE1khWjiCxhrE21tLP1phIaCNRiJhb6FFlY+ALGRmIAFsHdsFrxkMYEYv2pmzp2ZLzcDf5QA+De15Sglh6LMAagSYfSpXtouA+TL4b6FdRFScd+XNanzu2L2xQOwRo5E2R1OFUBlCygDqHAhMOtuNtYaoGTifATGyjjxGK4ZAJME02kwQMcw+0scS6wzQJ6AjkMjgfthptoAIod3VOzj9H7/QwKQL4eBClfAfFyPVAnre/6O+zhXCa976d5xo1B4H9QMgIVNpxkgJUJ+zMLVdHdmwS14AM6FJRhAthJeCqwAS6C1bCVsZ7zuRjUIWt6YxqSMOTVRtGiN1EQ4MUZfq0HQ+tmi0kESp9AeBPVirgk0c5XwU60835b8txGb1vTPjPVAdPAPfRV9SBjp6Vp44H9M5HpSfQPboW2GgFUougAAAABJRU5ErkJggg==&quot;&gt;&amp;nbsp;&lt;font face=&quot;Comic Sans MS&quot;&gt;List&amp;lt;PromoCode&amp;gt;&lt;/font&gt;" style="text;strokeColor=none;fillColor=none;align=left;verticalAlign=top;spacingLeft=4;spacingRight=4;overflow=hidden;rotatable=0;points=[[0,0.5],[1,0.5]];portConstraint=eastwest;whiteSpace=wrap;html=1;" parent="l-SgXU7na3cR4uzJKPwT-21" vertex="1">
          <mxGeometry y="146" width="193" height="30" as="geometry" />
        </mxCell>
        <mxCell id="l-SgXU7na3cR4uzJKPwT-27" value="&lt;img height=&quot;16&quot; width=&quot;16&quot; src=&quot;data:image/png;base64,iVBORw0KGgoAAAANSUhEUgAAABAAAAAQCAYAAAAf8/9hAAAABHNCSVQICAgIfAhkiAAAAAlwSFlzAAAAWQAAAFkBqp2phgAAABl0RVh0U29mdHdhcmUAd3d3Lmlua3NjYXBlLm9yZ5vuPBoAAAITSURBVDiNjZA/aBNRAMa/e/lrmuRymGrT2BZJL00tUu0fxKRFG9DBQcRScBHEQRFqRRDazcHaqRhwKuqgUicHURyiCHbQzcEhUqpVaxtME71LLsZLr5fLc+mV5BJJP3jLx+/73vceAMyAISoA2ugwxCQAOIYKMWCIOjy3arY4OTRS8vW94vL85IuytnlO9whoeUdhALCy3l3EZndVemYASNw9XwVSTUUx8x0OX7DKV8QkyqrirykghNyqAvO5Zjm1POr0h+aqilWFp2XNYVxG66ztAZCo94zOgZGL/q7exeBgdGp7AYAxA9cGwF3hlwC85PtHrqS+JmKnr86Q+P3p24G+YY7ZWvDUUOAGcBTAK72gydeZVoTkxLUHb0lbqA/plSXcuRAu7egJXCgybnU3a2xXeCMYPiXPvv9DI2cv0ZZAz5eGBVwoMm5x7dYGp9/R44+y1Nt7sujZ267u6eDXOY5j9T+oV/LLc2BoorC2GDs0+Zy49h8GKIXN22GXvn2Q6IbULUmS9L9w1c3RJ39pdL5A9524TB0+fh0cx+ocA0AB0ApAqMizJrtT7L/5hjjbDwKUYunhdWQTCyl5UwhBFPM6aAYwC+AnAOuWl3IHBqZM9qbt8OfHN5D9tJA2hvUFNfJ0Dz2zca1nWP4IhI9xFDMraVkRgsawvqBGWjHfksv8yCu/VxOw2OJyKReDKBbqsf8Aa8fUs+1j2QQAAAAASUVORK5CYII=&quot;&gt;&lt;font face=&quot;Comic Sans MS&quot;&gt;Preference(&lt;/font&gt;&lt;span style=&quot;white-space-collapse: preserve;&quot; data-src-align=&quot;0:10&quot; class=&quot;EzKURWReUAB5oZgtQNkl&quot;&gt;&lt;font face=&quot;Comic Sans MS&quot;&gt;Предпочтение&lt;/font&gt;&lt;/span&gt;&lt;font face=&quot;Comic Sans MS&quot;&gt;&lt;span style=&quot;white-space-collapse: preserve;&quot;&gt;)&lt;/span&gt;&lt;/font&gt;" style="swimlane;fontStyle=1;align=center;verticalAlign=top;childLayout=stackLayout;horizontal=1;startSize=26;horizontalStack=0;resizeParent=1;resizeParentMax=0;resizeLast=0;collapsible=1;marginBottom=0;whiteSpace=wrap;html=1;fillColor=#ffe6cc;strokeColor=#d79b00;sketch=1;curveFitting=1;jiggle=2;shadow=1;" parent="1" vertex="1">
          <mxGeometry x="394" y="874" width="193" height="56" as="geometry">
            <mxRectangle x="74" y="291" width="95" height="26" as="alternateBounds" />
          </mxGeometry>
        </mxCell>
        <mxCell id="l-SgXU7na3cR4uzJKPwT-28" value="&lt;img height=&quot;16&quot; width=&quot;16&quot; src=&quot;data:image/png;base64,iVBORw0KGgoAAAANSUhEUgAAABAAAAAQCAYAAAAf8/9hAAAABHNCSVQICAgIfAhkiAAAAAlwSFlzAAAOxAAADsQBlSsOGwAAABl0RVh0U29mdHdhcmUAd3d3Lmlua3NjYXBlLm9yZ5vuPBoAAAGVSURBVDiN7ZJPS1RhFMZ/57xdh6KICkUkmgpatGhtu/4QuJmy5s6dnTiUi1rXB5ivECqYm3BaJPd2s11WQlBkW8k2EUl/NolltHHMt/seF6UYCH2A+m3O5nkeeB4O/EcAkjR1oS1vKfRcfjleAIhb2TuMo2IsmpOr+UDtAWZSa927aXAF+BLUhhSgWHEngSOo9W9GG/t85LsDGhNsHDO5dCc7Y3A24A4hck2DjiuAiFWAN7/vHzgtPgG7kixTF6RswtzUYPXriYXX01iY11+yUDGz6wa9ya1074Y58tHjYDIPvMjq9WJrcLPZDHmjfkEv3r57GKRnudz5COxlKGnfhiio3TDT80BXtZU2thtRnboKIAc+Lj0EOYawWaNwP1/db8TPBMbE5PRWY5KmrjqRPZd4Ip1GmMXcLGb7TWzU7bTu0JYlH/nje0JorxalSbCZIMxpkOGODn/qx9qOXhEdUZByyfnhfDCeyRu1VOB94d1BhG+Rjz6vFqVFE5ZXvu8enRpIniLyZM1HH0R0RMyG/vIm/wTrdrioEt82JnkAAAAASUVORK5CYII=&quot;&gt;&amp;nbsp;&lt;font face=&quot;Comic Sans MS&quot;&gt;Name&lt;/font&gt;" style="text;strokeColor=none;fillColor=none;align=left;verticalAlign=top;spacingLeft=4;spacingRight=4;overflow=hidden;rotatable=0;points=[[0,0.5],[1,0.5]];portConstraint=eastwest;whiteSpace=wrap;html=1;" parent="l-SgXU7na3cR4uzJKPwT-27" vertex="1">
          <mxGeometry y="26" width="193" height="30" as="geometry" />
        </mxCell>
        <mxCell id="l-SgXU7na3cR4uzJKPwT-34" value="&lt;img height=&quot;16&quot; width=&quot;16&quot; src=&quot;data:image/png;base64,iVBORw0KGgoAAAANSUhEUgAAABAAAAAQCAYAAAAf8/9hAAAABHNCSVQICAgIfAhkiAAAAAlwSFlzAAAAWQAAAFkBqp2phgAAABl0RVh0U29mdHdhcmUAd3d3Lmlua3NjYXBlLm9yZ5vuPBoAAAITSURBVDiNjZA/aBNRAMa/e/lrmuRymGrT2BZJL00tUu0fxKRFG9DBQcRScBHEQRFqRRDazcHaqRhwKuqgUicHURyiCHbQzcEhUqpVaxtME71LLsZLr5fLc+mV5BJJP3jLx+/73vceAMyAISoA2ugwxCQAOIYKMWCIOjy3arY4OTRS8vW94vL85IuytnlO9whoeUdhALCy3l3EZndVemYASNw9XwVSTUUx8x0OX7DKV8QkyqrirykghNyqAvO5Zjm1POr0h+aqilWFp2XNYVxG66ztAZCo94zOgZGL/q7exeBgdGp7AYAxA9cGwF3hlwC85PtHrqS+JmKnr86Q+P3p24G+YY7ZWvDUUOAGcBTAK72gydeZVoTkxLUHb0lbqA/plSXcuRAu7egJXCgybnU3a2xXeCMYPiXPvv9DI2cv0ZZAz5eGBVwoMm5x7dYGp9/R44+y1Nt7sujZ267u6eDXOY5j9T+oV/LLc2BoorC2GDs0+Zy49h8GKIXN22GXvn2Q6IbULUmS9L9w1c3RJ39pdL5A9524TB0+fh0cx+ocA0AB0ApAqMizJrtT7L/5hjjbDwKUYunhdWQTCyl5UwhBFPM6aAYwC+AnAOuWl3IHBqZM9qbt8OfHN5D9tJA2hvUFNfJ0Dz2zca1nWP4IhI9xFDMraVkRgsawvqBGWjHfksv8yCu/VxOw2OJyKReDKBbqsf8Aa8fUs+1j2QQAAAAASUVORK5CYII=&quot;&gt;&lt;font face=&quot;Comic Sans MS&quot;&gt;PromoCode(&lt;/font&gt;&lt;font face=&quot;Comic Sans MS&quot;&gt;&lt;span style=&quot;white-space-collapse: preserve;&quot; data-src-align=&quot;0:5&quot; class=&quot;EzKURWReUAB5oZgtQNkl&quot;&gt;Промо&lt;/span&gt;&lt;span style=&quot;white-space-collapse: preserve;&quot;&gt;-&lt;/span&gt;&lt;span style=&quot;white-space-collapse: preserve;&quot; data-src-align=&quot;6:4&quot; class=&quot;EzKURWReUAB5oZgtQNkl&quot;&gt;код&lt;/span&gt;&lt;/font&gt;&lt;font face=&quot;Comic Sans MS&quot;&gt;&lt;span style=&quot;white-space-collapse: preserve;&quot;&gt;)&lt;/span&gt;&lt;/font&gt;" style="swimlane;fontStyle=1;align=center;verticalAlign=top;childLayout=stackLayout;horizontal=1;startSize=26;horizontalStack=0;resizeParent=1;resizeParentMax=0;resizeLast=0;collapsible=1;marginBottom=0;whiteSpace=wrap;html=1;fillColor=#ffe6cc;strokeColor=#d79b00;sketch=1;curveFitting=1;jiggle=2;shadow=1;" parent="1" vertex="1">
          <mxGeometry x="129" y="886" width="193" height="176" as="geometry">
            <mxRectangle x="74" y="291" width="95" height="26" as="alternateBounds" />
          </mxGeometry>
        </mxCell>
        <mxCell id="l-SgXU7na3cR4uzJKPwT-35" value="&lt;img height=&quot;16&quot; width=&quot;16&quot; src=&quot;data:image/png;base64,iVBORw0KGgoAAAANSUhEUgAAABAAAAAQCAYAAAAf8/9hAAAABHNCSVQICAgIfAhkiAAAAAlwSFlzAAAOxAAADsQBlSsOGwAAABl0RVh0U29mdHdhcmUAd3d3Lmlua3NjYXBlLm9yZ5vuPBoAAAGVSURBVDiN7ZJPS1RhFMZ/57xdh6KICkUkmgpatGhtu/4QuJmy5s6dnTiUi1rXB5ivECqYm3BaJPd2s11WQlBkW8k2EUl/NolltHHMt/seF6UYCH2A+m3O5nkeeB4O/EcAkjR1oS1vKfRcfjleAIhb2TuMo2IsmpOr+UDtAWZSa927aXAF+BLUhhSgWHEngSOo9W9GG/t85LsDGhNsHDO5dCc7Y3A24A4hck2DjiuAiFWAN7/vHzgtPgG7kixTF6RswtzUYPXriYXX01iY11+yUDGz6wa9ya1074Y58tHjYDIPvMjq9WJrcLPZDHmjfkEv3r57GKRnudz5COxlKGnfhiio3TDT80BXtZU2thtRnboKIAc+Lj0EOYawWaNwP1/db8TPBMbE5PRWY5KmrjqRPZd4Ip1GmMXcLGb7TWzU7bTu0JYlH/nje0JorxalSbCZIMxpkOGODn/qx9qOXhEdUZByyfnhfDCeyRu1VOB94d1BhG+Rjz6vFqVFE5ZXvu8enRpIniLyZM1HH0R0RMyG/vIm/wTrdrioEt82JnkAAAAASUVORK5CYII=&quot;&gt;&amp;nbsp;&lt;font face=&quot;Comic Sans MS&quot;&gt;Code&lt;/font&gt;" style="text;strokeColor=none;fillColor=none;align=left;verticalAlign=top;spacingLeft=4;spacingRight=4;overflow=hidden;rotatable=0;points=[[0,0.5],[1,0.5]];portConstraint=eastwest;whiteSpace=wrap;html=1;" parent="l-SgXU7na3cR4uzJKPwT-34" vertex="1">
          <mxGeometry y="26" width="193" height="30" as="geometry" />
        </mxCell>
        <mxCell id="l-SgXU7na3cR4uzJKPwT-36" value="&lt;img height=&quot;16&quot; width=&quot;16&quot; src=&quot;data:image/png;base64,iVBORw0KGgoAAAANSUhEUgAAABAAAAAQCAYAAAAf8/9hAAAABHNCSVQICAgIfAhkiAAAAAlwSFlzAAAOxAAADsQBlSsOGwAAABl0RVh0U29mdHdhcmUAd3d3Lmlua3NjYXBlLm9yZ5vuPBoAAAGVSURBVDiN7ZJPS1RhFMZ/57xdh6KICkUkmgpatGhtu/4QuJmy5s6dnTiUi1rXB5ivECqYm3BaJPd2s11WQlBkW8k2EUl/NolltHHMt/seF6UYCH2A+m3O5nkeeB4O/EcAkjR1oS1vKfRcfjleAIhb2TuMo2IsmpOr+UDtAWZSa927aXAF+BLUhhSgWHEngSOo9W9GG/t85LsDGhNsHDO5dCc7Y3A24A4hck2DjiuAiFWAN7/vHzgtPgG7kixTF6RswtzUYPXriYXX01iY11+yUDGz6wa9ya1074Y58tHjYDIPvMjq9WJrcLPZDHmjfkEv3r57GKRnudz5COxlKGnfhiio3TDT80BXtZU2thtRnboKIAc+Lj0EOYawWaNwP1/db8TPBMbE5PRWY5KmrjqRPZd4Ip1GmMXcLGb7TWzU7bTu0JYlH/nje0JorxalSbCZIMxpkOGODn/qx9qOXhEdUZByyfnhfDCeyRu1VOB94d1BhG+Rjz6vFqVFE5ZXvu8enRpIniLyZM1HH0R0RMyG/vIm/wTrdrioEt82JnkAAAAASUVORK5CYII=&quot;&gt;&amp;nbsp;&lt;font face=&quot;Comic Sans MS&quot;&gt;ServiceInfo&lt;/font&gt;" style="text;strokeColor=none;fillColor=none;align=left;verticalAlign=top;spacingLeft=4;spacingRight=4;overflow=hidden;rotatable=0;points=[[0,0.5],[1,0.5]];portConstraint=eastwest;whiteSpace=wrap;html=1;" parent="l-SgXU7na3cR4uzJKPwT-34" vertex="1">
          <mxGeometry y="56" width="193" height="30" as="geometry" />
        </mxCell>
        <mxCell id="l-SgXU7na3cR4uzJKPwT-37" value="&lt;img height=&quot;16&quot; width=&quot;16&quot; src=&quot;data:image/png;base64,iVBORw0KGgoAAAANSUhEUgAAABAAAAAQCAYAAAAf8/9hAAAABHNCSVQICAgIfAhkiAAAAAlwSFlzAAAOxAAADsQBlSsOGwAAABl0RVh0U29mdHdhcmUAd3d3Lmlua3NjYXBlLm9yZ5vuPBoAAAGVSURBVDiN7ZJPS1RhFMZ/57xdh6KICkUkmgpatGhtu/4QuJmy5s6dnTiUi1rXB5ivECqYm3BaJPd2s11WQlBkW8k2EUl/NolltHHMt/seF6UYCH2A+m3O5nkeeB4O/EcAkjR1oS1vKfRcfjleAIhb2TuMo2IsmpOr+UDtAWZSa927aXAF+BLUhhSgWHEngSOo9W9GG/t85LsDGhNsHDO5dCc7Y3A24A4hck2DjiuAiFWAN7/vHzgtPgG7kixTF6RswtzUYPXriYXX01iY11+yUDGz6wa9ya1074Y58tHjYDIPvMjq9WJrcLPZDHmjfkEv3r57GKRnudz5COxlKGnfhiio3TDT80BXtZU2thtRnboKIAc+Lj0EOYawWaNwP1/db8TPBMbE5PRWY5KmrjqRPZd4Ip1GmMXcLGb7TWzU7bTu0JYlH/nje0JorxalSbCZIMxpkOGODn/qx9qOXhEdUZByyfnhfDCeyRu1VOB94d1BhG+Rjz6vFqVFE5ZXvu8enRpIniLyZM1HH0R0RMyG/vIm/wTrdrioEt82JnkAAAAASUVORK5CYII=&quot;&gt;&amp;nbsp;&lt;font face=&quot;Comic Sans MS&quot;&gt;PartnerName&lt;/font&gt;" style="text;strokeColor=none;fillColor=none;align=left;verticalAlign=top;spacingLeft=4;spacingRight=4;overflow=hidden;rotatable=0;points=[[0,0.5],[1,0.5]];portConstraint=eastwest;whiteSpace=wrap;html=1;" parent="l-SgXU7na3cR4uzJKPwT-34" vertex="1">
          <mxGeometry y="86" width="193" height="30" as="geometry" />
        </mxCell>
        <mxCell id="l-SgXU7na3cR4uzJKPwT-38" value="&lt;img height=&quot;16&quot; width=&quot;16&quot; src=&quot;data:image/png;base64,iVBORw0KGgoAAAANSUhEUgAAABAAAAAQCAYAAAAf8/9hAAAABHNCSVQICAgIfAhkiAAAAAlwSFlzAAAOxAAADsQBlSsOGwAAABl0RVh0U29mdHdhcmUAd3d3Lmlua3NjYXBlLm9yZ5vuPBoAAAFVSURBVDiNtZK9TgJREEbPXBbF2FpZ+gQWVtbGWFgYYE1khWjiCxhrE21tLP1phIaCNRiJhb6FFlY+ALGRmIAFsHdsFrxkMYEYv2pmzp2ZLzcDf5QA+De15Sglh6LMAagSYfSpXtouA+TL4b6FdRFScd+XNanzu2L2xQOwRo5E2R1OFUBlCygDqHAhMOtuNtYaoGTifATGyjjxGK4ZAJME02kwQMcw+0scS6wzQJ6AjkMjgfthptoAIod3VOzj9H7/QwKQL4eBClfAfFyPVAnre/6O+zhXCa976d5xo1B4H9QMgIVNpxkgJUJ+zMLVdHdmwS14AM6FJRhAthJeCqwAS6C1bCVsZ7zuRjUIWt6YxqSMOTVRtGiN1EQ4MUZfq0HQ+tmi0kESp9AeBPVirgk0c5XwU60835b8txGb1vTPjPVAdPAPfRV9SBjp6Vp44H9M5HpSfQPboW2GgFUougAAAABJRU5ErkJggg==&quot;&gt;&amp;nbsp;&lt;font face=&quot;Comic Sans MS&quot;&gt;Employee&lt;/font&gt;" style="text;strokeColor=none;fillColor=none;align=left;verticalAlign=top;spacingLeft=4;spacingRight=4;overflow=hidden;rotatable=0;points=[[0,0.5],[1,0.5]];portConstraint=eastwest;whiteSpace=wrap;html=1;" parent="l-SgXU7na3cR4uzJKPwT-34" vertex="1">
          <mxGeometry y="116" width="193" height="30" as="geometry" />
        </mxCell>
        <mxCell id="l-SgXU7na3cR4uzJKPwT-40" value="&lt;img height=&quot;16&quot; width=&quot;16&quot; src=&quot;data:image/png;base64,iVBORw0KGgoAAAANSUhEUgAAABAAAAAQCAYAAAAf8/9hAAAABHNCSVQICAgIfAhkiAAAAAlwSFlzAAAOxAAADsQBlSsOGwAAABl0RVh0U29mdHdhcmUAd3d3Lmlua3NjYXBlLm9yZ5vuPBoAAAFVSURBVDiNtZK9TgJREEbPXBbF2FpZ+gQWVtbGWFgYYE1khWjiCxhrE21tLP1phIaCNRiJhb6FFlY+ALGRmIAFsHdsFrxkMYEYv2pmzp2ZLzcDf5QA+De15Sglh6LMAagSYfSpXtouA+TL4b6FdRFScd+XNanzu2L2xQOwRo5E2R1OFUBlCygDqHAhMOtuNtYaoGTifATGyjjxGK4ZAJME02kwQMcw+0scS6wzQJ6AjkMjgfthptoAIod3VOzj9H7/QwKQL4eBClfAfFyPVAnre/6O+zhXCa976d5xo1B4H9QMgIVNpxkgJUJ+zMLVdHdmwS14AM6FJRhAthJeCqwAS6C1bCVsZ7zuRjUIWt6YxqSMOTVRtGiN1EQ4MUZfq0HQ+tmi0kESp9AeBPVirgk0c5XwU60835b8txGb1vTPjPVAdPAPfRV9SBjp6Vp44H9M5HpSfQPboW2GgFUougAAAABJRU5ErkJggg==&quot;&gt;&amp;nbsp;&lt;font face=&quot;Comic Sans MS&quot;&gt;Preference&lt;/font&gt;" style="text;strokeColor=none;fillColor=none;align=left;verticalAlign=top;spacingLeft=4;spacingRight=4;overflow=hidden;rotatable=0;points=[[0,0.5],[1,0.5]];portConstraint=eastwest;whiteSpace=wrap;html=1;" parent="l-SgXU7na3cR4uzJKPwT-34" vertex="1">
          <mxGeometry y="146" width="193" height="30" as="geometry" />
        </mxCell>
        <mxCell id="l-SgXU7na3cR4uzJKPwT-41" style="edgeStyle=orthogonalEdgeStyle;curved=1;rounded=0;sketch=1;jiggle=2;curveFitting=1;orthogonalLoop=1;jettySize=auto;html=1;entryX=0.25;entryY=0;entryDx=0;entryDy=0;shadow=1;strokeColor=default;strokeWidth=1;align=center;verticalAlign=middle;fontFamily=Helvetica;fontSize=11;fontColor=default;labelBackgroundColor=default;endArrow=classic;flowAnimation=0;" parent="1" source="l-SgXU7na3cR4uzJKPwT-40" target="l-SgXU7na3cR4uzJKPwT-27" edge="1">
          <mxGeometry relative="1" as="geometry" />
        </mxCell>
        <mxCell id="l-SgXU7na3cR4uzJKPwT-43" style="edgeStyle=orthogonalEdgeStyle;curved=1;rounded=0;sketch=1;jiggle=2;curveFitting=1;orthogonalLoop=1;jettySize=auto;html=1;entryX=0.75;entryY=0;entryDx=0;entryDy=0;shadow=1;strokeColor=default;strokeWidth=1;align=center;verticalAlign=middle;fontFamily=Helvetica;fontSize=11;fontColor=default;labelBackgroundColor=default;endArrow=classic;flowAnimation=0;" parent="1" source="l-SgXU7na3cR4uzJKPwT-33" target="l-SgXU7na3cR4uzJKPwT-34" edge="1">
          <mxGeometry relative="1" as="geometry" />
        </mxCell>
        <mxCell id="l-SgXU7na3cR4uzJKPwT-44" style="edgeStyle=orthogonalEdgeStyle;curved=1;rounded=0;sketch=1;jiggle=2;curveFitting=1;orthogonalLoop=1;jettySize=auto;html=1;entryX=0;entryY=0;entryDx=0;entryDy=0;shadow=1;strokeColor=default;strokeWidth=1;align=center;verticalAlign=middle;fontFamily=Helvetica;fontSize=11;fontColor=default;labelBackgroundColor=default;endArrow=classic;flowAnimation=0;" parent="1" source="l-SgXU7na3cR4uzJKPwT-38" target="l-SgXU7na3cR4uzJKPwT-1" edge="1">
          <mxGeometry relative="1" as="geometry">
            <Array as="points">
              <mxPoint x="72" y="1017" />
              <mxPoint x="72" y="1071" />
              <mxPoint x="162" y="1071" />
            </Array>
          </mxGeometry>
        </mxCell>
        <mxCell id="l-SgXU7na3cR4uzJKPwT-45" value="&lt;img height=&quot;16&quot; width=&quot;16&quot; src=&quot;data:image/png;base64,iVBORw0KGgoAAAANSUhEUgAAABAAAAAQCAYAAAAf8/9hAAAABHNCSVQICAgIfAhkiAAAAAlwSFlzAAAAWQAAAFkBqp2phgAAABl0RVh0U29mdHdhcmUAd3d3Lmlua3NjYXBlLm9yZ5vuPBoAAAITSURBVDiNjZA/aBNRAMa/e/lrmuRymGrT2BZJL00tUu0fxKRFG9DBQcRScBHEQRFqRRDazcHaqRhwKuqgUicHURyiCHbQzcEhUqpVaxtME71LLsZLr5fLc+mV5BJJP3jLx+/73vceAMyAISoA2ugwxCQAOIYKMWCIOjy3arY4OTRS8vW94vL85IuytnlO9whoeUdhALCy3l3EZndVemYASNw9XwVSTUUx8x0OX7DKV8QkyqrirykghNyqAvO5Zjm1POr0h+aqilWFp2XNYVxG66ztAZCo94zOgZGL/q7exeBgdGp7AYAxA9cGwF3hlwC85PtHrqS+JmKnr86Q+P3p24G+YY7ZWvDUUOAGcBTAK72gydeZVoTkxLUHb0lbqA/plSXcuRAu7egJXCgybnU3a2xXeCMYPiXPvv9DI2cv0ZZAz5eGBVwoMm5x7dYGp9/R44+y1Nt7sujZ267u6eDXOY5j9T+oV/LLc2BoorC2GDs0+Zy49h8GKIXN22GXvn2Q6IbULUmS9L9w1c3RJ39pdL5A9524TB0+fh0cx+ocA0AB0ApAqMizJrtT7L/5hjjbDwKUYunhdWQTCyl5UwhBFPM6aAYwC+AnAOuWl3IHBqZM9qbt8OfHN5D9tJA2hvUFNfJ0Dz2zca1nWP4IhI9xFDMraVkRgsawvqBGWjHfksv8yCu/VxOw2OJyKReDKBbqsf8Aa8fUs+1j2QQAAAAASUVORK5CYII=&quot;&gt;&lt;font face=&quot;Comic Sans MS&quot;&gt;CustomerPreference&lt;/font&gt;" style="swimlane;fontStyle=1;align=center;verticalAlign=top;childLayout=stackLayout;horizontal=1;startSize=26;horizontalStack=0;resizeParent=1;resizeParentMax=0;resizeLast=0;collapsible=1;marginBottom=0;whiteSpace=wrap;html=1;fillColor=#ffe6cc;strokeColor=#d79b00;sketch=1;curveFitting=1;jiggle=2;shadow=1;" parent="1" vertex="1">
          <mxGeometry x="335" y="644" width="178" height="86" as="geometry">
            <mxRectangle x="74" y="291" width="95" height="26" as="alternateBounds" />
          </mxGeometry>
        </mxCell>
        <mxCell id="l-SgXU7na3cR4uzJKPwT-53" value="&lt;img height=&quot;16&quot; width=&quot;16&quot; src=&quot;data:image/png;base64,iVBORw0KGgoAAAANSUhEUgAAABAAAAAQCAYAAAAf8/9hAAAABHNCSVQICAgIfAhkiAAAAAlwSFlzAAAOxAAADsQBlSsOGwAAABl0RVh0U29mdHdhcmUAd3d3Lmlua3NjYXBlLm9yZ5vuPBoAAAFVSURBVDiNtZK9TgJREEbPXBbF2FpZ+gQWVtbGWFgYYE1khWjiCxhrE21tLP1phIaCNRiJhb6FFlY+ALGRmIAFsHdsFrxkMYEYv2pmzp2ZLzcDf5QA+De15Sglh6LMAagSYfSpXtouA+TL4b6FdRFScd+XNanzu2L2xQOwRo5E2R1OFUBlCygDqHAhMOtuNtYaoGTifATGyjjxGK4ZAJME02kwQMcw+0scS6wzQJ6AjkMjgfthptoAIod3VOzj9H7/QwKQL4eBClfAfFyPVAnre/6O+zhXCa976d5xo1B4H9QMgIVNpxkgJUJ+zMLVdHdmwS14AM6FJRhAthJeCqwAS6C1bCVsZ7zuRjUIWt6YxqSMOTVRtGiN1EQ4MUZfq0HQ+tmi0kESp9AeBPVirgk0c5XwU60835b8txGb1vTPjPVAdPAPfRV9SBjp6Vp44H9M5HpSfQPboW2GgFUougAAAABJRU5ErkJggg==&quot;&gt;&amp;nbsp;&lt;font face=&quot;Comic Sans MS&quot;&gt;Customer&lt;/font&gt;" style="text;strokeColor=none;fillColor=none;align=left;verticalAlign=top;spacingLeft=4;spacingRight=4;overflow=hidden;rotatable=0;points=[[0,0.5],[1,0.5]];portConstraint=eastwest;whiteSpace=wrap;html=1;" parent="l-SgXU7na3cR4uzJKPwT-45" vertex="1">
          <mxGeometry y="26" width="178" height="30" as="geometry" />
        </mxCell>
        <mxCell id="l-SgXU7na3cR4uzJKPwT-52" value="&lt;img height=&quot;16&quot; width=&quot;16&quot; src=&quot;data:image/png;base64,iVBORw0KGgoAAAANSUhEUgAAABAAAAAQCAYAAAAf8/9hAAAABHNCSVQICAgIfAhkiAAAAAlwSFlzAAAOxAAADsQBlSsOGwAAABl0RVh0U29mdHdhcmUAd3d3Lmlua3NjYXBlLm9yZ5vuPBoAAAFVSURBVDiNtZK9TgJREEbPXBbF2FpZ+gQWVtbGWFgYYE1khWjiCxhrE21tLP1phIaCNRiJhb6FFlY+ALGRmIAFsHdsFrxkMYEYv2pmzp2ZLzcDf5QA+De15Sglh6LMAagSYfSpXtouA+TL4b6FdRFScd+XNanzu2L2xQOwRo5E2R1OFUBlCygDqHAhMOtuNtYaoGTifATGyjjxGK4ZAJME02kwQMcw+0scS6wzQJ6AjkMjgfthptoAIod3VOzj9H7/QwKQL4eBClfAfFyPVAnre/6O+zhXCa976d5xo1B4H9QMgIVNpxkgJUJ+zMLVdHdmwS14AM6FJRhAthJeCqwAS6C1bCVsZ7zuRjUIWt6YxqSMOTVRtGiN1EQ4MUZfq0HQ+tmi0kESp9AeBPVirgk0c5XwU60835b8txGb1vTPjPVAdPAPfRV9SBjp6Vp44H9M5HpSfQPboW2GgFUougAAAABJRU5ErkJggg==&quot;&gt;&amp;nbsp;&lt;font face=&quot;Comic Sans MS&quot;&gt;Preference&lt;/font&gt;" style="text;strokeColor=none;fillColor=none;align=left;verticalAlign=top;spacingLeft=4;spacingRight=4;overflow=hidden;rotatable=0;points=[[0,0.5],[1,0.5]];portConstraint=eastwest;whiteSpace=wrap;html=1;" parent="l-SgXU7na3cR4uzJKPwT-45" vertex="1">
          <mxGeometry y="56" width="178" height="30" as="geometry" />
        </mxCell>
        <mxCell id="l-SgXU7na3cR4uzJKPwT-54" style="edgeStyle=orthogonalEdgeStyle;curved=1;rounded=0;sketch=1;jiggle=2;curveFitting=1;orthogonalLoop=1;jettySize=auto;html=1;entryX=0.75;entryY=0;entryDx=0;entryDy=0;shadow=1;strokeColor=default;strokeWidth=1;align=center;verticalAlign=middle;fontFamily=Helvetica;fontSize=11;fontColor=default;labelBackgroundColor=default;endArrow=classic;flowAnimation=0;" parent="1" source="l-SgXU7na3cR4uzJKPwT-53" target="l-SgXU7na3cR4uzJKPwT-21" edge="1">
          <mxGeometry relative="1" as="geometry" />
        </mxCell>
        <mxCell id="l-SgXU7na3cR4uzJKPwT-55" style="edgeStyle=orthogonalEdgeStyle;curved=1;rounded=0;sketch=1;jiggle=2;curveFitting=1;orthogonalLoop=1;jettySize=auto;html=1;entryX=0.75;entryY=0;entryDx=0;entryDy=0;shadow=1;strokeColor=default;strokeWidth=1;align=center;verticalAlign=middle;fontFamily=Helvetica;fontSize=11;fontColor=default;labelBackgroundColor=default;endArrow=classic;flowAnimation=0;" parent="1" source="l-SgXU7na3cR4uzJKPwT-52" target="l-SgXU7na3cR4uzJKPwT-27" edge="1">
          <mxGeometry relative="1" as="geometry" />
        </mxCell>
        <mxCell id="l-SgXU7na3cR4uzJKPwT-60" value="&lt;font style=&quot;font-size: 16px;&quot; face=&quot;Comic Sans MS&quot;&gt;1&lt;/font&gt;" style="text;html=1;align=center;verticalAlign=middle;resizable=0;points=[];autosize=1;strokeColor=none;fillColor=none;fontFamily=Helvetica;fontSize=11;fontColor=default;labelBackgroundColor=default;" parent="1" vertex="1">
          <mxGeometry x="354" y="1212" width="25" height="31" as="geometry" />
        </mxCell>
        <mxCell id="l-SgXU7na3cR4uzJKPwT-61" value="&lt;font face=&quot;Comic Sans MS&quot;&gt;&lt;span style=&quot;font-size: 16px;&quot;&gt;N&lt;/span&gt;&lt;/font&gt;" style="text;html=1;align=center;verticalAlign=middle;resizable=0;points=[];autosize=1;strokeColor=none;fillColor=none;fontFamily=Helvetica;fontSize=11;fontColor=default;labelBackgroundColor=default;" parent="1" vertex="1">
          <mxGeometry x="408.5" y="1238" width="31" height="31" as="geometry" />
        </mxCell>
        <mxCell id="l-SgXU7na3cR4uzJKPwT-62" value="&lt;font style=&quot;font-size: 16px;&quot; face=&quot;Comic Sans MS&quot;&gt;1&lt;/font&gt;" style="text;html=1;align=center;verticalAlign=middle;resizable=0;points=[];autosize=1;strokeColor=none;fillColor=none;fontFamily=Helvetica;fontSize=11;fontColor=default;labelBackgroundColor=default;" parent="1" vertex="1">
          <mxGeometry x="101" y="983" width="25" height="31" as="geometry" />
        </mxCell>
        <mxCell id="l-SgXU7na3cR4uzJKPwT-63" value="&lt;font face=&quot;Comic Sans MS&quot;&gt;&lt;span style=&quot;font-size: 16px;&quot;&gt;N&lt;/span&gt;&lt;/font&gt;" style="text;html=1;align=center;verticalAlign=middle;resizable=0;points=[];autosize=1;strokeColor=none;fillColor=none;fontFamily=Helvetica;fontSize=11;fontColor=default;labelBackgroundColor=default;" parent="1" vertex="1">
          <mxGeometry x="126" y="1091" width="31" height="31" as="geometry" />
        </mxCell>
        <mxCell id="l-SgXU7na3cR4uzJKPwT-66" value="&lt;font style=&quot;font-size: 16px;&quot; face=&quot;Comic Sans MS&quot;&gt;1&lt;/font&gt;" style="text;html=1;align=center;verticalAlign=middle;resizable=0;points=[];autosize=1;strokeColor=none;fillColor=none;fontFamily=Helvetica;fontSize=11;fontColor=default;labelBackgroundColor=default;" parent="1" vertex="1">
          <mxGeometry x="310" y="651" width="25" height="31" as="geometry" />
        </mxCell>
        <mxCell id="l-SgXU7na3cR4uzJKPwT-68" value="&lt;font style=&quot;font-size: 16px;&quot; face=&quot;Comic Sans MS&quot;&gt;1&lt;/font&gt;" style="text;html=1;align=center;verticalAlign=middle;resizable=0;points=[];autosize=1;strokeColor=none;fillColor=none;fontFamily=Helvetica;fontSize=11;fontColor=default;labelBackgroundColor=default;" parent="1" vertex="1">
          <mxGeometry x="522" y="691" width="25" height="31" as="geometry" />
        </mxCell>
        <mxCell id="l-SgXU7na3cR4uzJKPwT-71" value="&lt;font style=&quot;font-size: 16px;&quot; face=&quot;Comic Sans MS&quot;&gt;1&lt;/font&gt;" style="text;html=1;align=center;verticalAlign=middle;resizable=0;points=[];autosize=1;strokeColor=none;fillColor=none;fontFamily=Helvetica;fontSize=11;fontColor=default;labelBackgroundColor=default;" parent="1" vertex="1">
          <mxGeometry x="278" y="851" width="25" height="31" as="geometry" />
        </mxCell>
        <mxCell id="l-SgXU7na3cR4uzJKPwT-73" value="&lt;font style=&quot;font-size: 16px;&quot; face=&quot;Comic Sans MS&quot;&gt;1&lt;/font&gt;" style="text;html=1;align=center;verticalAlign=middle;resizable=0;points=[];autosize=1;strokeColor=none;fillColor=none;fontFamily=Helvetica;fontSize=11;fontColor=default;labelBackgroundColor=default;" parent="1" vertex="1">
          <mxGeometry x="326" y="1049" width="25" height="31" as="geometry" />
        </mxCell>
        <mxCell id="l-SgXU7na3cR4uzJKPwT-74" value="&lt;font face=&quot;Comic Sans MS&quot;&gt;&lt;span style=&quot;font-size: 16px;&quot;&gt;N&lt;/span&gt;&lt;/font&gt;" style="text;html=1;align=center;verticalAlign=middle;resizable=0;points=[];autosize=1;strokeColor=none;fillColor=none;fontFamily=Helvetica;fontSize=11;fontColor=default;labelBackgroundColor=default;" parent="1" vertex="1">
          <mxGeometry x="421" y="826" width="31" height="31" as="geometry" />
        </mxCell>
        <mxCell id="l-SgXU7na3cR4uzJKPwT-75" value="&lt;font face=&quot;Comic Sans MS&quot;&gt;&lt;span style=&quot;font-size: 16px;&quot;&gt;N&lt;/span&gt;&lt;/font&gt;" style="text;html=1;align=center;verticalAlign=middle;resizable=0;points=[];autosize=1;strokeColor=none;fillColor=none;fontFamily=Helvetica;fontSize=11;fontColor=default;labelBackgroundColor=default;" parent="1" vertex="1">
          <mxGeometry x="229" y="804" width="31" height="31" as="geometry" />
        </mxCell>
        <mxCell id="l-SgXU7na3cR4uzJKPwT-76" value="&lt;font face=&quot;Comic Sans MS&quot;&gt;&lt;span style=&quot;font-size: 16px;&quot;&gt;N&lt;/span&gt;&lt;/font&gt;" style="text;html=1;align=center;verticalAlign=middle;resizable=0;points=[];autosize=1;strokeColor=none;fillColor=none;fontFamily=Helvetica;fontSize=11;fontColor=default;labelBackgroundColor=default;" parent="1" vertex="1">
          <mxGeometry x="139" y="634" width="31" height="31" as="geometry" />
        </mxCell>
        <mxCell id="l-SgXU7na3cR4uzJKPwT-77" value="&lt;font face=&quot;Comic Sans MS&quot;&gt;&lt;span style=&quot;font-size: 16px;&quot;&gt;N&lt;/span&gt;&lt;/font&gt;" style="text;html=1;align=center;verticalAlign=middle;resizable=0;points=[];autosize=1;strokeColor=none;fillColor=none;fontFamily=Helvetica;fontSize=11;fontColor=default;labelBackgroundColor=default;" parent="1" vertex="1">
          <mxGeometry x="547" y="839" width="31" height="31" as="geometry" />
        </mxCell>
        <mxCell id="52k3unu4G2SpPFy7qgmM-1" value="&lt;font style=&quot;font-size: 24px;&quot; face=&quot;Comic Sans MS&quot;&gt;&lt;span style=&quot;color: rgb(5, 5, 5); font-size: inherit; font-style: inherit; font-variant-ligatures: inherit; font-variant-caps: inherit; font-weight: inherit;&quot;&gt;1)&lt;span style=&quot;white-space: pre;&quot;&gt;&#x9;&lt;/span&gt;Для нормальной работы с партнерами решили добавить в систему список партнеров и вести их активность, также будет сохраняться количество промокодов, которые выдал партнер;&lt;/span&gt;&lt;br&gt;&lt;span style=&quot;color: rgb(5, 5, 5); font-size: inherit; font-style: inherit; font-variant-ligatures: inherit; font-variant-caps: inherit; font-weight: inherit;&quot;&gt;2)&lt;span style=&quot;white-space: pre;&quot;&gt;&#x9;&lt;/span&gt;Приняли решение для части партнеров в ручном порядке продавать подписку на использование API. Для контроля подписки вводим лимиты на выдачу промокодов для партнеров и при попытке выдать промокод будем контролировать лимиты;&lt;/span&gt;&lt;br&gt;&lt;span style=&quot;color: rgb(5, 5, 5); font-size: inherit; font-style: inherit; font-variant-ligatures: inherit; font-variant-caps: inherit; font-weight: inherit;&quot;&gt;3)&lt;span style=&quot;white-space: pre;&quot;&gt;&#x9;&lt;/span&gt;Лимиты будем задавать и отменять через API. Лимиты должны иметь дату создания, окончания и если отменим до даты окончания, то дату отмены, а также количество промокодов в лимите&lt;/span&gt;&lt;/font&gt;&lt;span style=&quot;color: rgb(5, 5, 5); font-family: inherit; font-size: inherit; font-style: inherit; font-variant-ligatures: inherit; font-variant-caps: inherit; font-weight: inherit;&quot;&gt;.&lt;/span&gt;" style="text;html=1;align=left;verticalAlign=middle;whiteSpace=wrap;rounded=0;fontFamily=Helvetica;fontSize=11;fontColor=default;labelBackgroundColor=default;" vertex="1" parent="1">
          <mxGeometry x="722" y="364" width="1244" height="253" as="geometry" />
        </mxCell>
        <mxCell id="52k3unu4G2SpPFy7qgmM-2" value="&lt;font style=&quot;font-size: 24px;&quot; face=&quot;Comic Sans MS&quot;&gt;&lt;br&gt;&lt;span style=&quot;font-size: inherit; font-style: inherit; font-variant-ligatures: inherit; font-variant-caps: inherit; font-weight: inherit;&quot;&gt;Тесты должны соответствовать следующим условиям:&lt;/span&gt;&lt;br&gt;&lt;span style=&quot;font-size: inherit; font-style: inherit; font-variant-ligatures: inherit; font-variant-caps: inherit; font-weight: inherit;&quot;&gt;7)&lt;span style=&quot;white-space: pre;&quot;&gt;&#x9;&lt;/span&gt;Использовать именование: ИмяЕдиницыТестирования_Условие_ОжидаемыйРезультат;&lt;/span&gt;&lt;br&gt;&lt;span style=&quot;font-size: inherit; font-style: inherit; font-variant-ligatures: inherit; font-variant-caps: inherit; font-weight: inherit;&quot;&gt;8)&lt;span style=&quot;white-space: pre;&quot;&gt;&#x9;&lt;/span&gt;Для Arrange этапа должен использоваться фабричный метод при определении данных;&lt;/span&gt;&lt;br&gt;&lt;span style=&quot;font-size: inherit; font-style: inherit; font-variant-ligatures: inherit; font-variant-caps: inherit; font-weight: inherit;&quot;&gt;9)&lt;span style=&quot;white-space: pre;&quot;&gt;&#x9;&lt;/span&gt;Для Stub и Mock использовать Moq;&lt;/span&gt;&lt;br&gt;&lt;span style=&quot;font-size: inherit; font-style: inherit; font-variant-ligatures: inherit; font-variant-caps: inherit; font-weight: inherit;&quot;&gt;10)&lt;span style=&quot;white-space: pre;&quot;&gt;&#x9;&lt;/span&gt;Для создания тестируемого класса, например, PartnersController можно использовать AutoFixture (&lt;/span&gt;&lt;a style=&quot;font-size: inherit; font-style: inherit; font-variant: inherit; font-weight: inherit; border: 0px; font-stretch: inherit; line-height: inherit; font-optical-sizing: inherit; font-kerning: inherit; font-feature-settings: inherit; font-variation-settings: inherit; margin: 0px; overflow-anchor: none; padding: 0px; vertical-align: baseline; color: rgb(55, 84, 92);&quot; title=&quot;https://habr.com/ru/post/262435/&quot; href=&quot;https://habr.com/ru/post/262435/&quot; target=&quot;_blank&quot;&gt;https://habr.com/ru/post/262435/&lt;/a&gt;&lt;span style=&quot;font-size: inherit; font-style: inherit; font-variant-ligatures: inherit; font-variant-caps: inherit; font-weight: inherit;&quot;&gt;), чтобы избежать ошибок компиляции при добавлении новых зависимостей в конструктор или также использовать фабричный метод;&lt;/span&gt;&lt;br&gt;&lt;span style=&quot;font-size: inherit; font-style: inherit; font-variant-ligatures: inherit; font-variant-caps: inherit; font-weight: inherit;&quot;&gt;11)&lt;span style=&quot;white-space: pre;&quot;&gt;&#x9;&lt;/span&gt;Для проверки утверждения в тестах должен использоваться FluentAssertions;&lt;/span&gt;&lt;br&gt;&lt;span style=&quot;font-size: inherit; font-style: inherit; font-variant-ligatures: inherit; font-variant-caps: inherit; font-weight: inherit;&quot;&gt;12)&lt;span style=&quot;white-space: pre;&quot;&gt;&#x9;&lt;/span&gt;В качестве дополнительного условия тестовые данные должны формироваться с помощью Builder, если не будет использоваться AutoFixture, то Mock и Stub также должны настраиваться через Builder;&lt;/span&gt;&lt;br&gt;&lt;span style=&quot;font-size: inherit; font-style: inherit; font-variant-ligatures: inherit; font-variant-caps: inherit; font-weight: inherit;&quot;&gt;13)&lt;span style=&quot;white-space: pre;&quot;&gt;&#x9;&lt;/span&gt;В качестве дополнительного условия можно провести рефакторинг PartnersController или только метода SetPartnerPromoCodeLimitAsync на свое усмотрение, может быть ввести дополнительные классы для повышения удобства тестирования и сопровождения, если появятся дополнительные классы и методы, то они тоже должны быть протестированы, принцип расположения тестов в проекте соответствующий тестам в примере (Например, WebHost/Controllers/PartnersControllerTests); Если будет сделан рефакторинг, то при сдаче ДЗ поясните какие классы были введены;&lt;/span&gt;&lt;br&gt;&lt;span style=&quot;font-size: inherit; font-style: inherit; font-variant-ligatures: inherit; font-variant-caps: inherit; font-weight: inherit;&quot;&gt;14)&lt;span style=&quot;white-space: pre;&quot;&gt;&#x9;&lt;/span&gt;В качестве дополнительного условия можно добавить прогон тестов CI в GitLab и при сдаче ДЗ прислать ссылку на прогон.&lt;/span&gt;&lt;/font&gt;" style="text;html=1;align=left;verticalAlign=middle;whiteSpace=wrap;rounded=0;fontFamily=Helvetica;fontSize=11;fontColor=default;labelBackgroundColor=default;" vertex="1" parent="1">
          <mxGeometry x="1173" y="1065" width="1244" height="578" as="geometry" />
        </mxCell>
        <mxCell id="52k3unu4G2SpPFy7qgmM-3" value="&lt;font style=&quot;font-size: 24px;&quot; face=&quot;Comic Sans MS&quot;&gt;&lt;span style=&quot;font-size: inherit; font-style: inherit; font-variant-ligatures: inherit; font-variant-caps: inherit; font-weight: inherit;&quot;&gt;1)&lt;span style=&quot;white-space: pre;&quot;&gt;&#x9;&lt;/span&gt;Если партнер не найден, то также нужно выдать ошибку 404;&lt;/span&gt;&lt;br&gt;&lt;span style=&quot;font-size: inherit; font-style: inherit; font-variant-ligatures: inherit; font-variant-caps: inherit; font-weight: inherit;&quot;&gt;2)&lt;span style=&quot;white-space: pre;&quot;&gt;&#x9;&lt;/span&gt;Если партнер заблокирован, то есть поле IsActive=false в классе Partner, то также нужно выдать ошибку 400;&lt;/span&gt;&lt;br&gt;&lt;span style=&quot;font-size: inherit; font-style: inherit; font-variant-ligatures: inherit; font-variant-caps: inherit; font-weight: inherit;&quot;&gt;3)&lt;span style=&quot;white-space: pre;&quot;&gt;&#x9;&lt;/span&gt;Если партнеру выставляется лимит, то мы должны обнулить количество промокодов, которые партнер выдал NumberIssuedPromoCodes, если лимит закончился, то количество не обнуляется;&lt;/span&gt;&lt;br&gt;&lt;span style=&quot;font-size: inherit; font-style: inherit; font-variant-ligatures: inherit; font-variant-caps: inherit; font-weight: inherit;&quot;&gt;4)&lt;span style=&quot;white-space: pre;&quot;&gt;&#x9;&lt;/span&gt;При установке лимита нужно отключить предыдущий лимит;&lt;/span&gt;&lt;br&gt;&lt;span style=&quot;font-size: inherit; font-style: inherit; font-variant-ligatures: inherit; font-variant-caps: inherit; font-weight: inherit;&quot;&gt;5)&lt;span style=&quot;white-space: pre;&quot;&gt;&#x9;&lt;/span&gt;Лимит должен быть больше 0;&lt;/span&gt;&lt;br&gt;&lt;span style=&quot;font-size: inherit; font-style: inherit; font-variant-ligatures: inherit; font-variant-caps: inherit; font-weight: inherit;&quot;&gt;6)&lt;span style=&quot;white-space: pre;&quot;&gt;&#x9;&lt;/span&gt;Нужно убедиться, что сохранили новый лимит в базу данных (это нужно проверить Unit-тестом);&lt;/span&gt;&lt;br style=&quot;font-size: inherit; font-style: inherit; font-variant-ligatures: inherit; font-variant-caps: inherit; font-weight: inherit; display: initial;&quot;&gt;&lt;span style=&quot;font-size: inherit; font-style: inherit; font-variant-ligatures: inherit; font-variant-caps: inherit; font-weight: inherit;&quot;&gt;Если в текущей реализации найдутся ошибки, то их нужно исправить и желательно написать тест, чтобы они больше не повторялись.&lt;/span&gt;&lt;br&gt;&lt;br&gt;&lt;/font&gt;" style="text;html=1;align=left;verticalAlign=middle;whiteSpace=wrap;rounded=0;fontFamily=Helvetica;fontSize=11;fontColor=default;labelBackgroundColor=default;" vertex="1" parent="1">
          <mxGeometry x="947" y="682" width="1244" height="349" as="geometry" />
        </mxCell>
        <mxCell id="52k3unu4G2SpPFy7qgmM-9" value="" style="edgeStyle=orthogonalEdgeStyle;rounded=0;orthogonalLoop=1;jettySize=auto;html=1;sketch=1;curveFitting=1;jiggle=2;shadow=1;" edge="1" parent="1" source="52k3unu4G2SpPFy7qgmM-4" target="52k3unu4G2SpPFy7qgmM-8">
          <mxGeometry relative="1" as="geometry" />
        </mxCell>
        <mxCell id="52k3unu4G2SpPFy7qgmM-4" value="&lt;font style=&quot;font-size: 18px;&quot; face=&quot;Comic Sans MS&quot;&gt;Arrange&lt;/font&gt;" style="rounded=1;whiteSpace=wrap;html=1;fillColor=#f8cecc;strokeColor=#b85450;strokeWidth=2;sketch=1;curveFitting=1;jiggle=2;shadow=1;" vertex="1" parent="1">
          <mxGeometry x="573" y="1547" width="120" height="43" as="geometry" />
        </mxCell>
        <mxCell id="52k3unu4G2SpPFy7qgmM-11" value="" style="edgeStyle=orthogonalEdgeStyle;rounded=0;orthogonalLoop=1;jettySize=auto;html=1;sketch=1;curveFitting=1;jiggle=2;shadow=1;" edge="1" parent="1" source="52k3unu4G2SpPFy7qgmM-5" target="52k3unu4G2SpPFy7qgmM-10">
          <mxGeometry relative="1" as="geometry" />
        </mxCell>
        <mxCell id="52k3unu4G2SpPFy7qgmM-5" value="&lt;font style=&quot;font-size: 18px;&quot; face=&quot;Comic Sans MS&quot;&gt;Act&lt;/font&gt;" style="rounded=1;whiteSpace=wrap;html=1;fillColor=#f8cecc;strokeColor=#b85450;strokeWidth=2;sketch=1;curveFitting=1;jiggle=2;shadow=1;" vertex="1" parent="1">
          <mxGeometry x="600" y="1612" width="120" height="44" as="geometry" />
        </mxCell>
        <mxCell id="52k3unu4G2SpPFy7qgmM-13" value="" style="edgeStyle=orthogonalEdgeStyle;rounded=0;orthogonalLoop=1;jettySize=auto;html=1;sketch=1;curveFitting=1;jiggle=2;shadow=1;" edge="1" parent="1" source="52k3unu4G2SpPFy7qgmM-6" target="52k3unu4G2SpPFy7qgmM-12">
          <mxGeometry relative="1" as="geometry" />
        </mxCell>
        <mxCell id="52k3unu4G2SpPFy7qgmM-6" value="&lt;font style=&quot;font-size: 18px;&quot; face=&quot;Comic Sans MS&quot;&gt;Assert&lt;/font&gt;" style="rounded=1;whiteSpace=wrap;html=1;fillColor=#f8cecc;strokeColor=#b85450;strokeWidth=2;sketch=1;curveFitting=1;jiggle=2;shadow=1;" vertex="1" parent="1">
          <mxGeometry x="627" y="1689" width="120" height="45" as="geometry" />
        </mxCell>
        <mxCell id="52k3unu4G2SpPFy7qgmM-8" value="&lt;font style=&quot;font-size: 16px;&quot; face=&quot;Comic Sans MS&quot;&gt;Начатьлные данные&lt;/font&gt;" style="rounded=1;whiteSpace=wrap;html=1;fillColor=#f8cecc;strokeColor=#b85450;strokeWidth=2;sketch=1;curveFitting=1;jiggle=2;shadow=1;" vertex="1" parent="1">
          <mxGeometry x="773" y="1547" width="120" height="43" as="geometry" />
        </mxCell>
        <mxCell id="52k3unu4G2SpPFy7qgmM-10" value="&lt;font style=&quot;font-size: 16px;&quot; face=&quot;Comic Sans MS&quot;&gt;Совершаем действия&lt;/font&gt;" style="rounded=1;whiteSpace=wrap;html=1;fillColor=#f8cecc;strokeColor=#b85450;strokeWidth=2;sketch=1;curveFitting=1;jiggle=2;shadow=1;" vertex="1" parent="1">
          <mxGeometry x="800" y="1612" width="120" height="44" as="geometry" />
        </mxCell>
        <mxCell id="52k3unu4G2SpPFy7qgmM-12" value="&lt;font style=&quot;font-size: 16px;&quot; face=&quot;Comic Sans MS&quot;&gt;Проверяем, совпадает ли результат с ожиданием.&lt;/font&gt;" style="rounded=1;whiteSpace=wrap;html=1;fillColor=#f8cecc;strokeColor=#b85450;strokeWidth=2;sketch=1;curveFitting=1;jiggle=2;shadow=1;" vertex="1" parent="1">
          <mxGeometry x="827" y="1673" width="120" height="77" as="geometry" />
        </mxCell>
        <mxCell id="52k3unu4G2SpPFy7qgmM-14" value="&lt;img height=&quot;16&quot; width=&quot;16&quot; src=&quot;data:image/png;base64,iVBORw0KGgoAAAANSUhEUgAAABAAAAAQCAYAAAAf8/9hAAAABHNCSVQICAgIfAhkiAAAAAlwSFlzAAAAWQAAAFkBqp2phgAAABl0RVh0U29mdHdhcmUAd3d3Lmlua3NjYXBlLm9yZ5vuPBoAAAITSURBVDiNjZA/aBNRAMa/e/lrmuRymGrT2BZJL00tUu0fxKRFG9DBQcRScBHEQRFqRRDazcHaqRhwKuqgUicHURyiCHbQzcEhUqpVaxtME71LLsZLr5fLc+mV5BJJP3jLx+/73vceAMyAISoA2ugwxCQAOIYKMWCIOjy3arY4OTRS8vW94vL85IuytnlO9whoeUdhALCy3l3EZndVemYASNw9XwVSTUUx8x0OX7DKV8QkyqrirykghNyqAvO5Zjm1POr0h+aqilWFp2XNYVxG66ztAZCo94zOgZGL/q7exeBgdGp7AYAxA9cGwF3hlwC85PtHrqS+JmKnr86Q+P3p24G+YY7ZWvDUUOAGcBTAK72gydeZVoTkxLUHb0lbqA/plSXcuRAu7egJXCgybnU3a2xXeCMYPiXPvv9DI2cv0ZZAz5eGBVwoMm5x7dYGp9/R44+y1Nt7sujZ267u6eDXOY5j9T+oV/LLc2BoorC2GDs0+Zy49h8GKIXN22GXvn2Q6IbULUmS9L9w1c3RJ39pdL5A9524TB0+fh0cx+ocA0AB0ApAqMizJrtT7L/5hjjbDwKUYunhdWQTCyl5UwhBFPM6aAYwC+AnAOuWl3IHBqZM9qbt8OfHN5D9tJA2hvUFNfJ0Dz2zca1nWP4IhI9xFDMraVkRgsawvqBGWjHfksv8yCu/VxOw2OJyKReDKBbqsf8Aa8fUs+1j2QQAAAAASUVORK5CYII=&quot;&gt;&lt;font face=&quot;Comic Sans MS&quot;&gt;Partner(&lt;/font&gt;&lt;font face=&quot;Comic Sans MS&quot;&gt;&lt;span style=&quot;white-space-collapse: preserve;&quot; data-src-align=&quot;0:5&quot; class=&quot;EzKURWReUAB5oZgtQNkl&quot;&gt;Партнер&lt;/span&gt;&lt;/font&gt;&lt;font face=&quot;Comic Sans MS&quot;&gt;&lt;span style=&quot;white-space-collapse: preserve;&quot;&gt;)&lt;/span&gt;&lt;/font&gt;" style="swimlane;fontStyle=1;align=center;verticalAlign=top;childLayout=stackLayout;horizontal=1;startSize=26;horizontalStack=0;resizeParent=1;resizeParentMax=0;resizeLast=0;collapsible=1;marginBottom=0;whiteSpace=wrap;html=1;fillColor=#ffe6cc;strokeColor=#d79b00;sketch=1;curveFitting=1;jiggle=2;shadow=1;" vertex="1" parent="1">
          <mxGeometry x="-445" y="812" width="193" height="146" as="geometry">
            <mxRectangle x="74" y="291" width="95" height="26" as="alternateBounds" />
          </mxGeometry>
        </mxCell>
        <mxCell id="52k3unu4G2SpPFy7qgmM-15" value="&lt;img height=&quot;16&quot; width=&quot;16&quot; src=&quot;data:image/png;base64,iVBORw0KGgoAAAANSUhEUgAAABAAAAAQCAYAAAAf8/9hAAAABHNCSVQICAgIfAhkiAAAAAlwSFlzAAAOxAAADsQBlSsOGwAAABl0RVh0U29mdHdhcmUAd3d3Lmlua3NjYXBlLm9yZ5vuPBoAAAGVSURBVDiN7ZJPS1RhFMZ/57xdh6KICkUkmgpatGhtu/4QuJmy5s6dnTiUi1rXB5ivECqYm3BaJPd2s11WQlBkW8k2EUl/NolltHHMt/seF6UYCH2A+m3O5nkeeB4O/EcAkjR1oS1vKfRcfjleAIhb2TuMo2IsmpOr+UDtAWZSa927aXAF+BLUhhSgWHEngSOo9W9GG/t85LsDGhNsHDO5dCc7Y3A24A4hck2DjiuAiFWAN7/vHzgtPgG7kixTF6RswtzUYPXriYXX01iY11+yUDGz6wa9ya1074Y58tHjYDIPvMjq9WJrcLPZDHmjfkEv3r57GKRnudz5COxlKGnfhiio3TDT80BXtZU2thtRnboKIAc+Lj0EOYawWaNwP1/db8TPBMbE5PRWY5KmrjqRPZd4Ip1GmMXcLGb7TWzU7bTu0JYlH/nje0JorxalSbCZIMxpkOGODn/qx9qOXhEdUZByyfnhfDCeyRu1VOB94d1BhG+Rjz6vFqVFE5ZXvu8enRpIniLyZM1HH0R0RMyG/vIm/wTrdrioEt82JnkAAAAASUVORK5CYII=&quot;&gt;&amp;nbsp;&lt;font face=&quot;Comic Sans MS&quot;&gt;Name&lt;/font&gt;" style="text;strokeColor=none;fillColor=none;align=left;verticalAlign=top;spacingLeft=4;spacingRight=4;overflow=hidden;rotatable=0;points=[[0,0.5],[1,0.5]];portConstraint=eastwest;whiteSpace=wrap;html=1;" vertex="1" parent="52k3unu4G2SpPFy7qgmM-14">
          <mxGeometry y="26" width="193" height="30" as="geometry" />
        </mxCell>
        <mxCell id="52k3unu4G2SpPFy7qgmM-21" value="&lt;img height=&quot;16&quot; width=&quot;16&quot; src=&quot;data:image/png;base64,iVBORw0KGgoAAAANSUhEUgAAABAAAAAQCAYAAAAf8/9hAAAABHNCSVQICAgIfAhkiAAAAAlwSFlzAAAOxAAADsQBlSsOGwAAABl0RVh0U29mdHdhcmUAd3d3Lmlua3NjYXBlLm9yZ5vuPBoAAAFgSURBVDiN7ZAxS1thGIWf97s3RUnSf9C6FlFxKh3cVOjszQ26JFpa/A8uavduHQuXBFzuTYJ1E0cFxYKgqOCiBV1c1TiY5jsuScEhv6A908sZznnPA/9l/WMxSYbueD3ZWooO5jaaI67r3wNIdtGslk4Wk2ToPix+NCnnu+53ayn6BeAA4jQdfrDCljm/C+C6flkilUhBR3GSjrddfgKvVCI15w9LtewzQAigR1uTMdP/qFGJV4AVgKiWSYG9a1TiDHjV8za9mAZ+hAAd/+d7GAS3YN8A4nr6titbMygACLsDKNWzOYl5Ex8wq/+d8PPTwrWZXfd5eNmqwWwP0vr45enOIIjhAL8I7DercRmg0TMblbgFtKJatinpzcsA8QR0eq3ngtWolgnoODQF4LE9IAfgjC8vAgr+Ybvt8lMAY1dnX49HRg+CwIqIp7xvnwDch8WySTmTbrJqeX/QrH9Nzyj3i5WedCoFAAAAAElFTkSuQmCC&quot;&gt;&amp;nbsp;&lt;font face=&quot;Comic Sans MS&quot;&gt;NumberIssuedPromoCodes&lt;/font&gt;" style="text;strokeColor=none;fillColor=none;align=left;verticalAlign=top;spacingLeft=4;spacingRight=4;overflow=hidden;rotatable=0;points=[[0,0.5],[1,0.5]];portConstraint=eastwest;whiteSpace=wrap;html=1;" vertex="1" parent="52k3unu4G2SpPFy7qgmM-14">
          <mxGeometry y="56" width="193" height="30" as="geometry" />
        </mxCell>
        <mxCell id="52k3unu4G2SpPFy7qgmM-16" value="&lt;font face=&quot;Comic Sans MS&quot;&gt;Bool IsAction&lt;/font&gt;" style="text;strokeColor=none;fillColor=none;align=left;verticalAlign=top;spacingLeft=4;spacingRight=4;overflow=hidden;rotatable=0;points=[[0,0.5],[1,0.5]];portConstraint=eastwest;whiteSpace=wrap;html=1;" vertex="1" parent="52k3unu4G2SpPFy7qgmM-14">
          <mxGeometry y="86" width="193" height="30" as="geometry" />
        </mxCell>
        <mxCell id="52k3unu4G2SpPFy7qgmM-18" value="&lt;img height=&quot;16&quot; width=&quot;16&quot; src=&quot;data:image/png;base64,iVBORw0KGgoAAAANSUhEUgAAABAAAAAQCAYAAAAf8/9hAAAABHNCSVQICAgIfAhkiAAAAAlwSFlzAAAOxAAADsQBlSsOGwAAABl0RVh0U29mdHdhcmUAd3d3Lmlua3NjYXBlLm9yZ5vuPBoAAAFVSURBVDiNtZK9TgJREEbPXBbF2FpZ+gQWVtbGWFgYYE1khWjiCxhrE21tLP1phIaCNRiJhb6FFlY+ALGRmIAFsHdsFrxkMYEYv2pmzp2ZLzcDf5QA+De15Sglh6LMAagSYfSpXtouA+TL4b6FdRFScd+XNanzu2L2xQOwRo5E2R1OFUBlCygDqHAhMOtuNtYaoGTifATGyjjxGK4ZAJME02kwQMcw+0scS6wzQJ6AjkMjgfthptoAIod3VOzj9H7/QwKQL4eBClfAfFyPVAnre/6O+zhXCa976d5xo1B4H9QMgIVNpxkgJUJ+zMLVdHdmwS14AM6FJRhAthJeCqwAS6C1bCVsZ7zuRjUIWt6YxqSMOTVRtGiN1EQ4MUZfq0HQ+tmi0kESp9AeBPVirgk0c5XwU60835b8txGb1vTPjPVAdPAPfRV9SBjp6Vp44H9M5HpSfQPboW2GgFUougAAAABJRU5ErkJggg==&quot;&gt;&amp;nbsp;&lt;font face=&quot;Comic Sans MS&quot;&gt;List&amp;lt;PartnerPromoCodeLimit&amp;gt;&lt;/font&gt;" style="text;strokeColor=none;fillColor=none;align=left;verticalAlign=top;spacingLeft=4;spacingRight=4;overflow=hidden;rotatable=0;points=[[0,0.5],[1,0.5]];portConstraint=eastwest;whiteSpace=wrap;html=1;" vertex="1" parent="52k3unu4G2SpPFy7qgmM-14">
          <mxGeometry y="116" width="193" height="30" as="geometry" />
        </mxCell>
        <mxCell id="52k3unu4G2SpPFy7qgmM-22" value="&lt;img height=&quot;16&quot; width=&quot;16&quot; src=&quot;data:image/png;base64,iVBORw0KGgoAAAANSUhEUgAAABAAAAAQCAYAAAAf8/9hAAAABHNCSVQICAgIfAhkiAAAAAlwSFlzAAAAWQAAAFkBqp2phgAAABl0RVh0U29mdHdhcmUAd3d3Lmlua3NjYXBlLm9yZ5vuPBoAAAITSURBVDiNjZA/aBNRAMa/e/lrmuRymGrT2BZJL00tUu0fxKRFG9DBQcRScBHEQRFqRRDazcHaqRhwKuqgUicHURyiCHbQzcEhUqpVaxtME71LLsZLr5fLc+mV5BJJP3jLx+/73vceAMyAISoA2ugwxCQAOIYKMWCIOjy3arY4OTRS8vW94vL85IuytnlO9whoeUdhALCy3l3EZndVemYASNw9XwVSTUUx8x0OX7DKV8QkyqrirykghNyqAvO5Zjm1POr0h+aqilWFp2XNYVxG66ztAZCo94zOgZGL/q7exeBgdGp7AYAxA9cGwF3hlwC85PtHrqS+JmKnr86Q+P3p24G+YY7ZWvDUUOAGcBTAK72gydeZVoTkxLUHb0lbqA/plSXcuRAu7egJXCgybnU3a2xXeCMYPiXPvv9DI2cv0ZZAz5eGBVwoMm5x7dYGp9/R44+y1Nt7sujZ267u6eDXOY5j9T+oV/LLc2BoorC2GDs0+Zy49h8GKIXN22GXvn2Q6IbULUmS9L9w1c3RJ39pdL5A9524TB0+fh0cx+ocA0AB0ApAqMizJrtT7L/5hjjbDwKUYunhdWQTCyl5UwhBFPM6aAYwC+AnAOuWl3IHBqZM9qbt8OfHN5D9tJA2hvUFNfJ0Dz2zca1nWP4IhI9xFDMraVkRgsawvqBGWjHfksv8yCu/VxOw2OJyKReDKBbqsf8Aa8fUs+1j2QQAAAAASUVORK5CYII=&quot;&gt;&lt;font face=&quot;Comic Sans MS&quot;&gt;PartnerPromoCodeLimit(ЛимитПромокодовПартнеров&lt;/font&gt;&lt;font face=&quot;Comic Sans MS&quot;&gt;&lt;span style=&quot;white-space-collapse: preserve;&quot;&gt;)&lt;/span&gt;&lt;/font&gt;" style="swimlane;fontStyle=1;align=center;verticalAlign=top;childLayout=stackLayout;horizontal=1;startSize=26;horizontalStack=0;resizeParent=1;resizeParentMax=0;resizeLast=0;collapsible=1;marginBottom=0;whiteSpace=wrap;html=1;fillColor=#ffe6cc;strokeColor=#d79b00;sketch=1;curveFitting=1;jiggle=2;shadow=1;" vertex="1" parent="1">
          <mxGeometry x="-335" y="1027" width="379" height="164" as="geometry">
            <mxRectangle x="74" y="291" width="95" height="26" as="alternateBounds" />
          </mxGeometry>
        </mxCell>
        <mxCell id="52k3unu4G2SpPFy7qgmM-27" value="&lt;img height=&quot;16&quot; width=&quot;16&quot; src=&quot;data:image/png;base64,iVBORw0KGgoAAAANSUhEUgAAABAAAAAQCAYAAAAf8/9hAAAABHNCSVQICAgIfAhkiAAAAAlwSFlzAAAOxAAADsQBlSsOGwAAABl0RVh0U29mdHdhcmUAd3d3Lmlua3NjYXBlLm9yZ5vuPBoAAAFgSURBVDiN7ZAxS1thGIWf97s3RUnSf9C6FlFxKh3cVOjszQ26JFpa/A8uavduHQuXBFzuTYJ1E0cFxYKgqOCiBV1c1TiY5jsuScEhv6A908sZznnPA/9l/WMxSYbueD3ZWooO5jaaI67r3wNIdtGslk4Wk2ToPix+NCnnu+53ayn6BeAA4jQdfrDCljm/C+C6flkilUhBR3GSjrddfgKvVCI15w9LtewzQAigR1uTMdP/qFGJV4AVgKiWSYG9a1TiDHjV8za9mAZ+hAAd/+d7GAS3YN8A4nr6titbMygACLsDKNWzOYl5Ex8wq/+d8PPTwrWZXfd5eNmqwWwP0vr45enOIIjhAL8I7DercRmg0TMblbgFtKJatinpzcsA8QR0eq3ngtWolgnoODQF4LE9IAfgjC8vAgr+Ybvt8lMAY1dnX49HRg+CwIqIp7xvnwDch8WySTmTbrJqeX/QrH9Nzyj3i5WedCoFAAAAAElFTkSuQmCC&quot;&gt;&amp;nbsp;&lt;font face=&quot;Comic Sans MS&quot;&gt;Limit&lt;/font&gt;" style="text;strokeColor=none;fillColor=none;align=left;verticalAlign=top;spacingLeft=4;spacingRight=4;overflow=hidden;rotatable=0;points=[[0,0.5],[1,0.5]];portConstraint=eastwest;whiteSpace=wrap;html=1;" vertex="1" parent="52k3unu4G2SpPFy7qgmM-22">
          <mxGeometry y="26" width="379" height="30" as="geometry" />
        </mxCell>
        <mxCell id="52k3unu4G2SpPFy7qgmM-28" value="&lt;img height=&quot;16&quot; width=&quot;16&quot; src=&quot;data:image/png;base64,iVBORw0KGgoAAAANSUhEUgAAABAAAAAQCAYAAAAf8/9hAAAABHNCSVQICAgIfAhkiAAAAAlwSFlzAAAOxAAADsQBlSsOGwAAABl0RVh0U29mdHdhcmUAd3d3Lmlua3NjYXBlLm9yZ5vuPBoAAAF4SURBVDiNnZO9L0NhFMZ/59ykoYZODAbslfiIicnX0r2dxUc0MYp/wSQRQXykxNyGREiEYBEmEhI1V4ydSJpQ995jUFJ1XeKZ3pz3eX7nnOEINepNZ9pRZxwYMmgDECgAx/he5mJ1/LbaLx+PeDIbiTWW5oE0oLXgijxDVp6K0el8LlX+BMST2UisqXSAMfBDsFYnj8WGRD6XKitArLE0Hxg2tg12AgCDsabSHIBUdr4GnG95IwUgQjZoHRHpUFQngsJ/kOMbY2oiQ/8IAyAwrGLS8l8AWKuCWUiLZk/1FOPmJ4ua8BAy4qyDdbqqg8EQuVf1OQqZMSpme+p7XUqkH+Ty67d/qKhkAC8EUq8iu56+dvu+JavqnuOxqefLI3lDVkIAH5Psq0quqrZ0tjZ6pwBPxeg0cPILpA6sB0CQ4xe3PAOVo8nnUuXHYkMCYTF8HXGBhWf3JXG1Pvn6DqtR39RW3DfGBIapnDNQQOzIcW3jbG30rtr/BowxgrkYmDMYAAAAAElFTkSuQmCC&quot;&gt;&amp;nbsp;&lt;font face=&quot;Comic Sans MS&quot;&gt;StartDate&lt;/font&gt;" style="text;strokeColor=none;fillColor=none;align=left;verticalAlign=top;spacingLeft=4;spacingRight=4;overflow=hidden;rotatable=0;points=[[0,0.5],[1,0.5]];portConstraint=eastwest;whiteSpace=wrap;html=1;" vertex="1" parent="52k3unu4G2SpPFy7qgmM-22">
          <mxGeometry y="56" width="379" height="26" as="geometry" />
        </mxCell>
        <mxCell id="52k3unu4G2SpPFy7qgmM-29" value="&lt;img height=&quot;16&quot; width=&quot;16&quot; src=&quot;data:image/png;base64,iVBORw0KGgoAAAANSUhEUgAAABAAAAAQCAYAAAAf8/9hAAAABHNCSVQICAgIfAhkiAAAAAlwSFlzAAAOxAAADsQBlSsOGwAAABl0RVh0U29mdHdhcmUAd3d3Lmlua3NjYXBlLm9yZ5vuPBoAAAF4SURBVDiNnZO9L0NhFMZ/59ykoYZODAbslfiIicnX0r2dxUc0MYp/wSQRQXykxNyGREiEYBEmEhI1V4ydSJpQ995jUFJ1XeKZ3pz3eX7nnOEINepNZ9pRZxwYMmgDECgAx/he5mJ1/LbaLx+PeDIbiTWW5oE0oLXgijxDVp6K0el8LlX+BMST2UisqXSAMfBDsFYnj8WGRD6XKitArLE0Hxg2tg12AgCDsabSHIBUdr4GnG95IwUgQjZoHRHpUFQngsJ/kOMbY2oiQ/8IAyAwrGLS8l8AWKuCWUiLZk/1FOPmJ4ua8BAy4qyDdbqqg8EQuVf1OQqZMSpme+p7XUqkH+Ty67d/qKhkAC8EUq8iu56+dvu+JavqnuOxqefLI3lDVkIAH5Psq0quqrZ0tjZ6pwBPxeg0cPILpA6sB0CQ4xe3PAOVo8nnUuXHYkMCYTF8HXGBhWf3JXG1Pvn6DqtR39RW3DfGBIapnDNQQOzIcW3jbG30rtr/BowxgrkYmDMYAAAAAElFTkSuQmCC&quot;&gt;&amp;nbsp;&lt;font face=&quot;Comic Sans MS&quot;&gt;ConselDate&lt;/font&gt;" style="text;strokeColor=none;fillColor=none;align=left;verticalAlign=top;spacingLeft=4;spacingRight=4;overflow=hidden;rotatable=0;points=[[0,0.5],[1,0.5]];portConstraint=eastwest;whiteSpace=wrap;html=1;" vertex="1" parent="52k3unu4G2SpPFy7qgmM-22">
          <mxGeometry y="82" width="379" height="26" as="geometry" />
        </mxCell>
        <mxCell id="52k3unu4G2SpPFy7qgmM-30" value="&lt;img height=&quot;16&quot; width=&quot;16&quot; src=&quot;data:image/png;base64,iVBORw0KGgoAAAANSUhEUgAAABAAAAAQCAYAAAAf8/9hAAAABHNCSVQICAgIfAhkiAAAAAlwSFlzAAAOxAAADsQBlSsOGwAAABl0RVh0U29mdHdhcmUAd3d3Lmlua3NjYXBlLm9yZ5vuPBoAAAF4SURBVDiNnZO9L0NhFMZ/59ykoYZODAbslfiIicnX0r2dxUc0MYp/wSQRQXykxNyGREiEYBEmEhI1V4ydSJpQ995jUFJ1XeKZ3pz3eX7nnOEINepNZ9pRZxwYMmgDECgAx/he5mJ1/LbaLx+PeDIbiTWW5oE0oLXgijxDVp6K0el8LlX+BMST2UisqXSAMfBDsFYnj8WGRD6XKitArLE0Hxg2tg12AgCDsabSHIBUdr4GnG95IwUgQjZoHRHpUFQngsJ/kOMbY2oiQ/8IAyAwrGLS8l8AWKuCWUiLZk/1FOPmJ4ua8BAy4qyDdbqqg8EQuVf1OQqZMSpme+p7XUqkH+Ty67d/qKhkAC8EUq8iu56+dvu+JavqnuOxqefLI3lDVkIAH5Psq0quqrZ0tjZ6pwBPxeg0cPILpA6sB0CQ4xe3PAOVo8nnUuXHYkMCYTF8HXGBhWf3JXG1Pvn6DqtR39RW3DfGBIapnDNQQOzIcW3jbG30rtr/BowxgrkYmDMYAAAAAElFTkSuQmCC&quot;&gt;&amp;nbsp;&lt;font face=&quot;Comic Sans MS&quot;&gt;EndDate&lt;/font&gt;" style="text;strokeColor=none;fillColor=none;align=left;verticalAlign=top;spacingLeft=4;spacingRight=4;overflow=hidden;rotatable=0;points=[[0,0.5],[1,0.5]];portConstraint=eastwest;whiteSpace=wrap;html=1;" vertex="1" parent="52k3unu4G2SpPFy7qgmM-22">
          <mxGeometry y="108" width="379" height="26" as="geometry" />
        </mxCell>
        <mxCell id="52k3unu4G2SpPFy7qgmM-26" value="&lt;img height=&quot;16&quot; width=&quot;16&quot; src=&quot;data:image/png;base64,iVBORw0KGgoAAAANSUhEUgAAABAAAAAQCAYAAAAf8/9hAAAABHNCSVQICAgIfAhkiAAAAAlwSFlzAAAOxAAADsQBlSsOGwAAABl0RVh0U29mdHdhcmUAd3d3Lmlua3NjYXBlLm9yZ5vuPBoAAAFVSURBVDiNtZK9TgJREEbPXBbF2FpZ+gQWVtbGWFgYYE1khWjiCxhrE21tLP1phIaCNRiJhb6FFlY+ALGRmIAFsHdsFrxkMYEYv2pmzp2ZLzcDf5QA+De15Sglh6LMAagSYfSpXtouA+TL4b6FdRFScd+XNanzu2L2xQOwRo5E2R1OFUBlCygDqHAhMOtuNtYaoGTifATGyjjxGK4ZAJME02kwQMcw+0scS6wzQJ6AjkMjgfthptoAIod3VOzj9H7/QwKQL4eBClfAfFyPVAnre/6O+zhXCa976d5xo1B4H9QMgIVNpxkgJUJ+zMLVdHdmwS14AM6FJRhAthJeCqwAS6C1bCVsZ7zuRjUIWt6YxqSMOTVRtGiN1EQ4MUZfq0HQ+tmi0kESp9AeBPVirgk0c5XwU60835b8txGb1vTPjPVAdPAPfRV9SBjp6Vp44H9M5HpSfQPboW2GgFUougAAAABJRU5ErkJggg==&quot;&gt;&amp;nbsp;&lt;font face=&quot;Comic Sans MS&quot;&gt;Partner&lt;/font&gt;" style="text;strokeColor=none;fillColor=none;align=left;verticalAlign=top;spacingLeft=4;spacingRight=4;overflow=hidden;rotatable=0;points=[[0,0.5],[1,0.5]];portConstraint=eastwest;whiteSpace=wrap;html=1;" vertex="1" parent="52k3unu4G2SpPFy7qgmM-22">
          <mxGeometry y="134" width="379" height="30" as="geometry" />
        </mxCell>
        <mxCell id="52k3unu4G2SpPFy7qgmM-31" style="edgeStyle=orthogonalEdgeStyle;rounded=0;orthogonalLoop=1;jettySize=auto;html=1;shadow=1;sketch=1;jiggle=2;curveFitting=1;strokeColor=default;strokeWidth=1;align=center;verticalAlign=middle;fontFamily=Helvetica;fontSize=11;fontColor=default;labelBackgroundColor=default;endArrow=classic;flowAnimation=0;curved=1;" edge="1" parent="1" source="52k3unu4G2SpPFy7qgmM-18" target="52k3unu4G2SpPFy7qgmM-22">
          <mxGeometry relative="1" as="geometry" />
        </mxCell>
        <mxCell id="52k3unu4G2SpPFy7qgmM-33" value="&lt;font face=&quot;Comic Sans MS&quot;&gt;&lt;span style=&quot;font-size: 16px;&quot;&gt;N&lt;/span&gt;&lt;/font&gt;" style="text;html=1;align=center;verticalAlign=middle;resizable=0;points=[];autosize=1;strokeColor=none;fillColor=none;fontFamily=Helvetica;fontSize=11;fontColor=default;labelBackgroundColor=default;" vertex="1" parent="1">
          <mxGeometry x="-244" y="906" width="31" height="31" as="geometry" />
        </mxCell>
        <mxCell id="52k3unu4G2SpPFy7qgmM-35" value="&lt;font style=&quot;font-size: 16px;&quot; face=&quot;Comic Sans MS&quot;&gt;1&lt;/font&gt;" style="text;html=1;align=center;verticalAlign=middle;resizable=0;points=[];autosize=1;strokeColor=none;fillColor=none;fontFamily=Helvetica;fontSize=11;fontColor=default;labelBackgroundColor=default;" vertex="1" parent="1">
          <mxGeometry x="-143" y="993" width="25" height="31" as="geometry" />
        </mxCell>
      </root>
    </mxGraphModel>
  </diagram>
</mxfile>
